<svg width="15" height="17" viewBox="0 0 15 17" fill="none" xmlns="http://www.w3.org/2000/svg">
<path d="M8.07088 0.292892C7.68035 -0.0976315 7.04719 -0.0976315 6.65666 0.292892L0.292702 6.65685C-0.0978227 7.04738 -0.0978227 7.68054 0.292702 8.07107C0.683226 8.46159 1.31639 8.46159 1.70692 8.07107L7.36377 2.41421L13.0206 8.07107C13.4111 8.46159 14.0443 8.46159 14.4348 8.07107C14.8254 7.68054 14.8254 7.04738 14.4348 6.65685L8.07088 0.292892ZM7.36377 17H8.36377V1H7.36377H6.36377V17H7.36377Z" fill="#131313"/>
<path d="M8.07088 0.292892C7.68035 -0.0976315 7.04719 -0.0976315 6.65666 0.292892L0.292702 6.65685C-0.0978227 7.04738 -0.0978227 7.68054 0.292702 8.07107C0.683226 8.46159 1.31639 8.46159 1.70692 8.07107L7.36377 2.41421L13.0206 8.07107C13.4111 8.46159 14.0443 8.46159 14.4348 8.07107C14.8254 7.68054 14.8254 7.04738 14.4348 6.65685L8.07088 0.292892ZM7.36377 17H8.36377V1H7.36377H6.36377V17H7.36377Z" fill="black" fill-opacity="0.2"/>
<path d="M8.07088 0.292892C7.68035 -0.0976315 7.04719 -0.0976315 6.65666 0.292892L0.292702 6.65685C-0.0978227 7.04738 -0.0978227 7.68054 0.292702 8.07107C0.683226 8.46159 1.31639 8.46159 1.70692 8.07107L7.36377 2.41421L13.0206 8.07107C13.4111 8.46159 14.0443 8.46159 14.4348 8.07107C14.8254 7.68054 14.8254 7.04738 14.4348 6.65685L8.07088 0.292892ZM7.36377 17H8.36377V1H7.36377H6.36377V17H7.36377Z" fill="black" fill-opacity="0.2"/>
<path d="M8.07088 0.292892C7.68035 -0.0976315 7.04719 -0.0976315 6.65666 0.292892L0.292702 6.65685C-0.0978227 7.04738 -0.0978227 7.68054 0.292702 8.07107C0.683226 8.46159 1.31639 8.46159 1.70692 8.07107L7.36377 2.41421L13.0206 8.07107C13.4111 8.46159 14.0443 8.46159 14.4348 8.07107C14.8254 7.68054 14.8254 7.04738 14.4348 6.65685L8.07088 0.292892ZM7.36377 17H8.36377V1H7.36377H6.36377V17H7.36377Z" fill="black" fill-opacity="0.2"/>
</svg>
