<svg width="18" height="10" viewBox="0 0 18 10" fill="none" xmlns="http://www.w3.org/2000/svg">
<path d="M0.731445 0.758789C1.04903 0.425877 1.57667 0.411782 1.91016 0.731445L1.90918 0.732422L9 7.51367L16.0908 0.731445L16.0918 0.730469C16.4043 0.433296 16.8863 0.425598 17.207 0.699219L17.2686 0.756836V0.757812C17.567 1.06998 17.5754 1.55301 17.3018 1.87402L17.2432 1.93555L9.57617 9.26953C9.41551 9.42287 9.20711 9.5 9 9.5C8.79294 9.5 8.58537 9.42267 8.4248 9.26953H8.42383L0.756836 1.93555C0.42532 1.61783 0.41351 1.09173 0.731445 0.758789Z" fill="#131313"/>
<path d="M0.731445 0.758789C1.04903 0.425877 1.57667 0.411782 1.91016 0.731445L1.90918 0.732422L9 7.51367L16.0908 0.731445L16.0918 0.730469C16.4043 0.433296 16.8863 0.425598 17.207 0.699219L17.2686 0.756836V0.757812C17.567 1.06998 17.5754 1.55301 17.3018 1.87402L17.2432 1.93555L9.57617 9.26953C9.41551 9.42287 9.20711 9.5 9 9.5C8.79294 9.5 8.58537 9.42267 8.4248 9.26953H8.42383L0.756836 1.93555C0.42532 1.61783 0.41351 1.09173 0.731445 0.758789Z" fill="black" fill-opacity="0.2"/>
<path d="M0.731445 0.758789C1.04903 0.425877 1.57667 0.411782 1.91016 0.731445L1.90918 0.732422L9 7.51367L16.0908 0.731445L16.0918 0.730469C16.4043 0.433296 16.8863 0.425598 17.207 0.699219L17.2686 0.756836V0.757812C17.567 1.06998 17.5754 1.55301 17.3018 1.87402L17.2432 1.93555L9.57617 9.26953C9.41551 9.42287 9.20711 9.5 9 9.5C8.79294 9.5 8.58537 9.42267 8.4248 9.26953H8.42383L0.756836 1.93555C0.42532 1.61783 0.41351 1.09173 0.731445 0.758789Z" fill="black" fill-opacity="0.2"/>
<path d="M0.731445 0.758789C1.04903 0.425877 1.57667 0.411782 1.91016 0.731445L1.90918 0.732422L9 7.51367L16.0908 0.731445L16.0918 0.730469C16.4043 0.433296 16.8863 0.425598 17.207 0.699219L17.2686 0.756836V0.757812C17.567 1.06998 17.5754 1.55301 17.3018 1.87402L17.2432 1.93555L9.57617 9.26953C9.41551 9.42287 9.20711 9.5 9 9.5C8.79294 9.5 8.58537 9.42267 8.4248 9.26953H8.42383L0.756836 1.93555C0.42532 1.61783 0.41351 1.09173 0.731445 0.758789Z" fill="black" fill-opacity="0.2"/>
<path d="M0.731445 0.758789C1.04903 0.425877 1.57667 0.411782 1.91016 0.731445L1.90918 0.732422L9 7.51367L16.0908 0.731445L16.0918 0.730469C16.4043 0.433296 16.8863 0.425598 17.207 0.699219L17.2686 0.756836V0.757812C17.567 1.06998 17.5754 1.55301 17.3018 1.87402L17.2432 1.93555L9.57617 9.26953C9.41551 9.42287 9.20711 9.5 9 9.5C8.79294 9.5 8.58537 9.42267 8.4248 9.26953H8.42383L0.756836 1.93555C0.42532 1.61783 0.41351 1.09173 0.731445 0.758789Z" stroke="#131313"/>
<path d="M0.731445 0.758789C1.04903 0.425877 1.57667 0.411782 1.91016 0.731445L1.90918 0.732422L9 7.51367L16.0908 0.731445L16.0918 0.730469C16.4043 0.433296 16.8863 0.425598 17.207 0.699219L17.2686 0.756836V0.757812C17.567 1.06998 17.5754 1.55301 17.3018 1.87402L17.2432 1.93555L9.57617 9.26953C9.41551 9.42287 9.20711 9.5 9 9.5C8.79294 9.5 8.58537 9.42267 8.4248 9.26953H8.42383L0.756836 1.93555C0.42532 1.61783 0.41351 1.09173 0.731445 0.758789Z" stroke="black" stroke-opacity="0.2"/>
<path d="M0.731445 0.758789C1.04903 0.425877 1.57667 0.411782 1.91016 0.731445L1.90918 0.732422L9 7.51367L16.0908 0.731445L16.0918 0.730469C16.4043 0.433296 16.8863 0.425598 17.207 0.699219L17.2686 0.756836V0.757812C17.567 1.06998 17.5754 1.55301 17.3018 1.87402L17.2432 1.93555L9.57617 9.26953C9.41551 9.42287 9.20711 9.5 9 9.5C8.79294 9.5 8.58537 9.42267 8.4248 9.26953H8.42383L0.756836 1.93555C0.42532 1.61783 0.41351 1.09173 0.731445 0.758789Z" stroke="black" stroke-opacity="0.2"/>
<path d="M0.731445 0.758789C1.04903 0.425877 1.57667 0.411782 1.91016 0.731445L1.90918 0.732422L9 7.51367L16.0908 0.731445L16.0918 0.730469C16.4043 0.433296 16.8863 0.425598 17.207 0.699219L17.2686 0.756836V0.757812C17.567 1.06998 17.5754 1.55301 17.3018 1.87402L17.2432 1.93555L9.57617 9.26953C9.41551 9.42287 9.20711 9.5 9 9.5C8.79294 9.5 8.58537 9.42267 8.4248 9.26953H8.42383L0.756836 1.93555C0.42532 1.61783 0.41351 1.09173 0.731445 0.758789Z" stroke="black" stroke-opacity="0.2"/>
</svg>
