<svg width="18" height="17" viewBox="0 0 18 17" fill="none" xmlns="http://www.w3.org/2000/svg">
<path d="M16.1562 16.875H17.5L13.75 7.5H12.2812L8.53125 16.875H9.875L10.875 14.375H15.1562L16.1562 16.875ZM11.375 13.125L13.0125 9.025L14.6562 13.125H11.375ZM10 3.125V1.875H5.625V0H4.375V1.875H0V3.125H6.7125C6.3662 4.55335 5.68251 5.87787 4.71875 6.9875C4.0905 6.20844 3.60587 5.32383 3.2875 4.375H1.975C2.36842 5.64788 3.0052 6.83229 3.85 7.8625C2.91632 8.76816 1.82285 9.49291 0.625 10L1.09375 11.1625C2.43974 10.5942 3.6656 9.77553 4.70625 8.75C5.72802 9.78956 6.95367 10.6067 8.30625 11.15L8.75 10C7.54525 9.53431 6.45414 8.81614 5.55 7.89375C6.74661 6.52997 7.58816 4.89196 8 3.125H10Z" fill="#6C757D"/>
</svg>
