<svg width="18" height="18" viewBox="0 0 18 18" fill="none" xmlns="http://www.w3.org/2000/svg">
<path d="M17.5 6.875C17.5 5.97216 17.3222 5.07817 16.9767 4.24405C16.6312 3.40994 16.1248 2.65204 15.4864 2.01364C14.848 1.37524 14.0901 0.868829 13.2559 0.523328C12.4218 0.177827 11.5278 0 10.625 0H5.625C4.13316 0 2.70242 0.592632 1.64752 1.64752C0.592632 2.70242 0 4.13316 0 5.625V7.5C0 8.3288 0.32924 9.12366 0.915291 9.70971C1.50134 10.2958 2.2962 10.625 3.125 10.625H3.8125C3.95658 11.3309 4.34011 11.9652 4.89819 12.4208C5.45626 12.8764 6.15459 13.1251 6.875 13.125H7.7375L10.2375 17.5L11.3188 16.875L8.81875 12.5688C8.71818 12.3661 8.56449 12.1945 8.37407 12.0723C8.18365 11.9502 7.96364 11.882 7.7375 11.875H6.875C6.37772 11.875 5.90081 11.6775 5.54917 11.3258C5.19754 10.9742 5 10.4973 5 10C5 9.50272 5.19754 9.02581 5.54917 8.67417C5.90081 8.32254 6.37772 8.125 6.875 8.125H7.5V6.875H6.875C6.15459 6.87485 5.45626 7.12361 4.89819 7.57918C4.34011 8.03475 3.95658 8.66915 3.8125 9.375H3.125C2.62772 9.375 2.15081 9.17746 1.79917 8.82583C1.44754 8.47419 1.25 7.99728 1.25 7.5V6.25H2.5C2.99728 6.25 3.47419 6.05246 3.82583 5.70083C4.17746 5.34919 4.375 4.87228 4.375 4.375V3.75H3.125V4.375C3.125 4.54076 3.05915 4.69973 2.94194 4.81694C2.82473 4.93415 2.66576 5 2.5 5H1.3C1.45016 3.95963 1.96988 3.0081 2.76408 2.31949C3.55827 1.63088 4.57385 1.25123 5.625 1.25H9.375V2.5C9.375 2.66576 9.30915 2.82473 9.19194 2.94194C9.07473 3.05915 8.91576 3.125 8.75 3.125H7.5V4.375H8.75C9.24728 4.375 9.72419 4.17746 10.0758 3.82583C10.4275 3.47419 10.625 2.99728 10.625 2.5V1.25C11.6713 1.25143 12.6964 1.54464 13.5852 2.09669C14.474 2.64873 15.1912 3.43773 15.6562 4.375H15C14.5027 4.375 14.0258 4.57254 13.6742 4.92417C13.3225 5.27581 13.125 5.75272 13.125 6.25V6.875H14.375V6.25C14.375 6.08424 14.4408 5.92527 14.5581 5.80806C14.6753 5.69085 14.8342 5.625 15 5.625H16.1063C16.202 6.03476 16.2503 6.45419 16.25 6.875V7.5C16.25 8.3288 15.9208 9.12366 15.3347 9.70971C14.7487 10.2958 13.9538 10.625 13.125 10.625H11.25V11.875H13.125C13.7738 11.8741 14.4142 11.7289 15 11.45V11.875C15 12.3723 14.8025 12.8492 14.4508 13.2008C14.0992 13.5525 13.6223 13.75 13.125 13.75H12.5V15H13.125C13.9538 15 14.7487 14.6708 15.3347 14.0847C15.9208 13.4987 16.25 12.7038 16.25 11.875V10.5562C17.0499 9.73988 17.4985 8.64292 17.5 7.5V6.875Z" fill="#6C757D"/>
</svg>
