<svg width="48" height="48" viewBox="0 0 48 48" fill="none" xmlns="http://www.w3.org/2000/svg">
<path d="M23.03 43.784L23.55 42.908L20.966 41.38L20.446 42.256L23.03 43.784ZM16.45 42.908L16.97 43.784L19.552 42.256L19.032 41.38L16.45 42.908ZM20.448 42.256C20.4021 42.3331 20.3363 42.3965 20.2575 42.4394C20.1786 42.4824 20.0897 42.5033 20 42.5C19.9103 42.5033 19.8214 42.4824 19.7425 42.4394C19.6637 42.3965 19.5979 42.3331 19.552 42.256L16.972 43.784C18.324 46.072 21.676 46.072 23.03 43.784L20.448 42.256ZM17.6 13.5H22.4V10.5H17.6V13.5ZM34.5 25.6V27.2H37.5V25.6H34.5ZM5.5 27.2V25.6H2.5V27.2H5.5ZM2.5 27.2C2.5 29.044 2.5 30.5 2.58 31.68C2.66 32.872 2.83 33.888 3.224 34.836L5.994 33.688C5.778 33.166 5.644 32.514 5.574 31.476C5.5 30.422 5.5 29.084 5.5 27.2H2.5ZM12.626 37.67C11.042 37.62 10.18 37.482 9.512 37.206L8.364 39.976C9.558 40.472 10.874 40.616 12.53 40.67L12.626 37.67ZM3.224 34.836C4.18817 37.163 6.03701 39.0118 8.364 39.976L9.512 37.206C8.72314 36.8791 8.00642 36.4 7.40278 35.796C6.79915 35.192 6.32044 34.477 5.994 33.688L3.224 34.836ZM34.5 27.2C34.5 29.084 34.5 30.422 34.428 31.476C34.356 32.516 34.222 33.166 34.006 33.688L36.776 34.836C37.17 33.888 37.338 32.872 37.42 31.68C37.5 30.5 37.5 29.044 37.5 27.2H34.5ZM27.47 40.67C29.126 40.616 30.442 40.47 31.636 39.976L30.488 37.206C29.818 37.482 28.958 37.62 27.374 37.67L27.47 40.67ZM34.006 33.688C33.6791 34.4769 33.2 35.1936 32.596 35.7972C31.992 36.4009 31.275 36.8796 30.486 37.206L31.636 39.976C33.963 39.0118 35.8118 37.163 36.776 34.836L34.006 33.688ZM22.4 13.5C25.048 13.5 26.928 13.5 28.39 13.64C29.83 13.778 30.71 14.038 31.396 14.458L32.964 11.9C31.726 11.14 30.334 10.812 28.674 10.654C27.038 10.498 24.99 10.5 22.4 10.5V13.5ZM37.5 25.6C37.5 23.01 37.5 20.962 37.346 19.326C37.188 17.666 36.858 16.276 36.1 15.038L33.542 16.604C33.962 17.29 34.222 18.17 34.36 19.61C34.5 21.07 34.5 22.952 34.5 25.6H37.5ZM31.396 14.458C32.2707 14.994 33.006 15.7294 33.542 16.604L36.1 15.038C35.3167 13.7599 34.2421 12.6833 32.964 11.9L31.396 14.458ZM17.6 10.5C15.01 10.5 12.962 10.5 11.326 10.654C9.666 10.812 8.274 11.142 7.036 11.9L8.604 14.458C9.29 14.038 10.17 13.778 11.61 13.64C13.07 13.5 14.952 13.5 17.6 13.5V10.5ZM5.5 25.6C5.5 22.952 5.5 21.072 5.64 19.61C5.778 18.17 6.038 17.29 6.458 16.604L3.9 15.036C3.14 16.274 2.812 17.666 2.654 19.326C2.498 20.962 2.5 23.01 2.5 25.6H5.5ZM7.036 11.9C5.75789 12.6833 4.68328 13.7579 3.9 15.036L6.458 16.604C6.99398 15.7294 7.72935 14.994 8.604 14.458L7.036 11.9ZM19.034 41.38C18.632 40.7 18.28 40.104 17.938 39.632C17.5859 39.1162 17.1294 38.6801 16.598 38.352L15.07 40.936C15.162 40.99 15.29 41.09 15.51 41.396C15.75 41.726 16.022 42.182 16.45 42.908L19.034 41.38ZM12.53 40.67C13.422 40.698 13.99 40.718 14.424 40.77C14.832 40.82 14.986 40.886 15.07 40.936L16.596 38.354C16.016 38.012 15.408 37.868 14.786 37.794C14.19 37.72 13.464 37.698 12.626 37.67L12.53 40.67ZM23.55 42.908C23.978 42.182 24.25 41.726 24.49 41.396C24.71 41.09 24.838 40.99 24.93 40.936L23.404 38.354C22.8726 38.6821 22.4161 39.1182 22.064 39.634C21.72 40.104 21.368 40.702 20.966 41.38L23.55 42.908ZM27.374 37.67C26.536 37.698 25.81 37.72 25.214 37.792C24.594 37.868 23.982 38.014 23.404 38.354L24.93 40.936C25.014 40.886 25.168 40.82 25.576 40.77C26.008 40.718 26.578 40.698 27.47 40.67L27.374 37.67Z" fill="#131313"/>
<path d="M23.03 43.784L23.55 42.908L20.966 41.38L20.446 42.256L23.03 43.784ZM16.45 42.908L16.97 43.784L19.552 42.256L19.032 41.38L16.45 42.908ZM20.448 42.256C20.4021 42.3331 20.3363 42.3965 20.2575 42.4394C20.1786 42.4824 20.0897 42.5033 20 42.5C19.9103 42.5033 19.8214 42.4824 19.7425 42.4394C19.6637 42.3965 19.5979 42.3331 19.552 42.256L16.972 43.784C18.324 46.072 21.676 46.072 23.03 43.784L20.448 42.256ZM17.6 13.5H22.4V10.5H17.6V13.5ZM34.5 25.6V27.2H37.5V25.6H34.5ZM5.5 27.2V25.6H2.5V27.2H5.5ZM2.5 27.2C2.5 29.044 2.5 30.5 2.58 31.68C2.66 32.872 2.83 33.888 3.224 34.836L5.994 33.688C5.778 33.166 5.644 32.514 5.574 31.476C5.5 30.422 5.5 29.084 5.5 27.2H2.5ZM12.626 37.67C11.042 37.62 10.18 37.482 9.512 37.206L8.364 39.976C9.558 40.472 10.874 40.616 12.53 40.67L12.626 37.67ZM3.224 34.836C4.18817 37.163 6.03701 39.0118 8.364 39.976L9.512 37.206C8.72314 36.8791 8.00642 36.4 7.40278 35.796C6.79915 35.192 6.32044 34.477 5.994 33.688L3.224 34.836ZM34.5 27.2C34.5 29.084 34.5 30.422 34.428 31.476C34.356 32.516 34.222 33.166 34.006 33.688L36.776 34.836C37.17 33.888 37.338 32.872 37.42 31.68C37.5 30.5 37.5 29.044 37.5 27.2H34.5ZM27.47 40.67C29.126 40.616 30.442 40.47 31.636 39.976L30.488 37.206C29.818 37.482 28.958 37.62 27.374 37.67L27.47 40.67ZM34.006 33.688C33.6791 34.4769 33.2 35.1936 32.596 35.7972C31.992 36.4009 31.275 36.8796 30.486 37.206L31.636 39.976C33.963 39.0118 35.8118 37.163 36.776 34.836L34.006 33.688ZM22.4 13.5C25.048 13.5 26.928 13.5 28.39 13.64C29.83 13.778 30.71 14.038 31.396 14.458L32.964 11.9C31.726 11.14 30.334 10.812 28.674 10.654C27.038 10.498 24.99 10.5 22.4 10.5V13.5ZM37.5 25.6C37.5 23.01 37.5 20.962 37.346 19.326C37.188 17.666 36.858 16.276 36.1 15.038L33.542 16.604C33.962 17.29 34.222 18.17 34.36 19.61C34.5 21.07 34.5 22.952 34.5 25.6H37.5ZM31.396 14.458C32.2707 14.994 33.006 15.7294 33.542 16.604L36.1 15.038C35.3167 13.7599 34.2421 12.6833 32.964 11.9L31.396 14.458ZM17.6 10.5C15.01 10.5 12.962 10.5 11.326 10.654C9.666 10.812 8.274 11.142 7.036 11.9L8.604 14.458C9.29 14.038 10.17 13.778 11.61 13.64C13.07 13.5 14.952 13.5 17.6 13.5V10.5ZM5.5 25.6C5.5 22.952 5.5 21.072 5.64 19.61C5.778 18.17 6.038 17.29 6.458 16.604L3.9 15.036C3.14 16.274 2.812 17.666 2.654 19.326C2.498 20.962 2.5 23.01 2.5 25.6H5.5ZM7.036 11.9C5.75789 12.6833 4.68328 13.7579 3.9 15.036L6.458 16.604C6.99398 15.7294 7.72935 14.994 8.604 14.458L7.036 11.9ZM19.034 41.38C18.632 40.7 18.28 40.104 17.938 39.632C17.5859 39.1162 17.1294 38.6801 16.598 38.352L15.07 40.936C15.162 40.99 15.29 41.09 15.51 41.396C15.75 41.726 16.022 42.182 16.45 42.908L19.034 41.38ZM12.53 40.67C13.422 40.698 13.99 40.718 14.424 40.77C14.832 40.82 14.986 40.886 15.07 40.936L16.596 38.354C16.016 38.012 15.408 37.868 14.786 37.794C14.19 37.72 13.464 37.698 12.626 37.67L12.53 40.67ZM23.55 42.908C23.978 42.182 24.25 41.726 24.49 41.396C24.71 41.09 24.838 40.99 24.93 40.936L23.404 38.354C22.8726 38.6821 22.4161 39.1182 22.064 39.634C21.72 40.104 21.368 40.702 20.966 41.38L23.55 42.908ZM27.374 37.67C26.536 37.698 25.81 37.72 25.214 37.792C24.594 37.868 23.982 38.014 23.404 38.354L24.93 40.936C25.014 40.886 25.168 40.82 25.576 40.77C26.008 40.718 26.578 40.698 27.47 40.67L27.374 37.67Z" fill="black" fill-opacity="0.2"/>
<path d="M23.03 43.784L23.55 42.908L20.966 41.38L20.446 42.256L23.03 43.784ZM16.45 42.908L16.97 43.784L19.552 42.256L19.032 41.38L16.45 42.908ZM20.448 42.256C20.4021 42.3331 20.3363 42.3965 20.2575 42.4394C20.1786 42.4824 20.0897 42.5033 20 42.5C19.9103 42.5033 19.8214 42.4824 19.7425 42.4394C19.6637 42.3965 19.5979 42.3331 19.552 42.256L16.972 43.784C18.324 46.072 21.676 46.072 23.03 43.784L20.448 42.256ZM17.6 13.5H22.4V10.5H17.6V13.5ZM34.5 25.6V27.2H37.5V25.6H34.5ZM5.5 27.2V25.6H2.5V27.2H5.5ZM2.5 27.2C2.5 29.044 2.5 30.5 2.58 31.68C2.66 32.872 2.83 33.888 3.224 34.836L5.994 33.688C5.778 33.166 5.644 32.514 5.574 31.476C5.5 30.422 5.5 29.084 5.5 27.2H2.5ZM12.626 37.67C11.042 37.62 10.18 37.482 9.512 37.206L8.364 39.976C9.558 40.472 10.874 40.616 12.53 40.67L12.626 37.67ZM3.224 34.836C4.18817 37.163 6.03701 39.0118 8.364 39.976L9.512 37.206C8.72314 36.8791 8.00642 36.4 7.40278 35.796C6.79915 35.192 6.32044 34.477 5.994 33.688L3.224 34.836ZM34.5 27.2C34.5 29.084 34.5 30.422 34.428 31.476C34.356 32.516 34.222 33.166 34.006 33.688L36.776 34.836C37.17 33.888 37.338 32.872 37.42 31.68C37.5 30.5 37.5 29.044 37.5 27.2H34.5ZM27.47 40.67C29.126 40.616 30.442 40.47 31.636 39.976L30.488 37.206C29.818 37.482 28.958 37.62 27.374 37.67L27.47 40.67ZM34.006 33.688C33.6791 34.4769 33.2 35.1936 32.596 35.7972C31.992 36.4009 31.275 36.8796 30.486 37.206L31.636 39.976C33.963 39.0118 35.8118 37.163 36.776 34.836L34.006 33.688ZM22.4 13.5C25.048 13.5 26.928 13.5 28.39 13.64C29.83 13.778 30.71 14.038 31.396 14.458L32.964 11.9C31.726 11.14 30.334 10.812 28.674 10.654C27.038 10.498 24.99 10.5 22.4 10.5V13.5ZM37.5 25.6C37.5 23.01 37.5 20.962 37.346 19.326C37.188 17.666 36.858 16.276 36.1 15.038L33.542 16.604C33.962 17.29 34.222 18.17 34.36 19.61C34.5 21.07 34.5 22.952 34.5 25.6H37.5ZM31.396 14.458C32.2707 14.994 33.006 15.7294 33.542 16.604L36.1 15.038C35.3167 13.7599 34.2421 12.6833 32.964 11.9L31.396 14.458ZM17.6 10.5C15.01 10.5 12.962 10.5 11.326 10.654C9.666 10.812 8.274 11.142 7.036 11.9L8.604 14.458C9.29 14.038 10.17 13.778 11.61 13.64C13.07 13.5 14.952 13.5 17.6 13.5V10.5ZM5.5 25.6C5.5 22.952 5.5 21.072 5.64 19.61C5.778 18.17 6.038 17.29 6.458 16.604L3.9 15.036C3.14 16.274 2.812 17.666 2.654 19.326C2.498 20.962 2.5 23.01 2.5 25.6H5.5ZM7.036 11.9C5.75789 12.6833 4.68328 13.7579 3.9 15.036L6.458 16.604C6.99398 15.7294 7.72935 14.994 8.604 14.458L7.036 11.9ZM19.034 41.38C18.632 40.7 18.28 40.104 17.938 39.632C17.5859 39.1162 17.1294 38.6801 16.598 38.352L15.07 40.936C15.162 40.99 15.29 41.09 15.51 41.396C15.75 41.726 16.022 42.182 16.45 42.908L19.034 41.38ZM12.53 40.67C13.422 40.698 13.99 40.718 14.424 40.77C14.832 40.82 14.986 40.886 15.07 40.936L16.596 38.354C16.016 38.012 15.408 37.868 14.786 37.794C14.19 37.72 13.464 37.698 12.626 37.67L12.53 40.67ZM23.55 42.908C23.978 42.182 24.25 41.726 24.49 41.396C24.71 41.09 24.838 40.99 24.93 40.936L23.404 38.354C22.8726 38.6821 22.4161 39.1182 22.064 39.634C21.72 40.104 21.368 40.702 20.966 41.38L23.55 42.908ZM27.374 37.67C26.536 37.698 25.81 37.72 25.214 37.792C24.594 37.868 23.982 38.014 23.404 38.354L24.93 40.936C25.014 40.886 25.168 40.82 25.576 40.77C26.008 40.718 26.578 40.698 27.47 40.67L27.374 37.67Z" fill="black" fill-opacity="0.2"/>
<path d="M23.03 43.784L23.55 42.908L20.966 41.38L20.446 42.256L23.03 43.784ZM16.45 42.908L16.97 43.784L19.552 42.256L19.032 41.38L16.45 42.908ZM20.448 42.256C20.4021 42.3331 20.3363 42.3965 20.2575 42.4394C20.1786 42.4824 20.0897 42.5033 20 42.5C19.9103 42.5033 19.8214 42.4824 19.7425 42.4394C19.6637 42.3965 19.5979 42.3331 19.552 42.256L16.972 43.784C18.324 46.072 21.676 46.072 23.03 43.784L20.448 42.256ZM17.6 13.5H22.4V10.5H17.6V13.5ZM34.5 25.6V27.2H37.5V25.6H34.5ZM5.5 27.2V25.6H2.5V27.2H5.5ZM2.5 27.2C2.5 29.044 2.5 30.5 2.58 31.68C2.66 32.872 2.83 33.888 3.224 34.836L5.994 33.688C5.778 33.166 5.644 32.514 5.574 31.476C5.5 30.422 5.5 29.084 5.5 27.2H2.5ZM12.626 37.67C11.042 37.62 10.18 37.482 9.512 37.206L8.364 39.976C9.558 40.472 10.874 40.616 12.53 40.67L12.626 37.67ZM3.224 34.836C4.18817 37.163 6.03701 39.0118 8.364 39.976L9.512 37.206C8.72314 36.8791 8.00642 36.4 7.40278 35.796C6.79915 35.192 6.32044 34.477 5.994 33.688L3.224 34.836ZM34.5 27.2C34.5 29.084 34.5 30.422 34.428 31.476C34.356 32.516 34.222 33.166 34.006 33.688L36.776 34.836C37.17 33.888 37.338 32.872 37.42 31.68C37.5 30.5 37.5 29.044 37.5 27.2H34.5ZM27.47 40.67C29.126 40.616 30.442 40.47 31.636 39.976L30.488 37.206C29.818 37.482 28.958 37.62 27.374 37.67L27.47 40.67ZM34.006 33.688C33.6791 34.4769 33.2 35.1936 32.596 35.7972C31.992 36.4009 31.275 36.8796 30.486 37.206L31.636 39.976C33.963 39.0118 35.8118 37.163 36.776 34.836L34.006 33.688ZM22.4 13.5C25.048 13.5 26.928 13.5 28.39 13.64C29.83 13.778 30.71 14.038 31.396 14.458L32.964 11.9C31.726 11.14 30.334 10.812 28.674 10.654C27.038 10.498 24.99 10.5 22.4 10.5V13.5ZM37.5 25.6C37.5 23.01 37.5 20.962 37.346 19.326C37.188 17.666 36.858 16.276 36.1 15.038L33.542 16.604C33.962 17.29 34.222 18.17 34.36 19.61C34.5 21.07 34.5 22.952 34.5 25.6H37.5ZM31.396 14.458C32.2707 14.994 33.006 15.7294 33.542 16.604L36.1 15.038C35.3167 13.7599 34.2421 12.6833 32.964 11.9L31.396 14.458ZM17.6 10.5C15.01 10.5 12.962 10.5 11.326 10.654C9.666 10.812 8.274 11.142 7.036 11.9L8.604 14.458C9.29 14.038 10.17 13.778 11.61 13.64C13.07 13.5 14.952 13.5 17.6 13.5V10.5ZM5.5 25.6C5.5 22.952 5.5 21.072 5.64 19.61C5.778 18.17 6.038 17.29 6.458 16.604L3.9 15.036C3.14 16.274 2.812 17.666 2.654 19.326C2.498 20.962 2.5 23.01 2.5 25.6H5.5ZM7.036 11.9C5.75789 12.6833 4.68328 13.7579 3.9 15.036L6.458 16.604C6.99398 15.7294 7.72935 14.994 8.604 14.458L7.036 11.9ZM19.034 41.38C18.632 40.7 18.28 40.104 17.938 39.632C17.5859 39.1162 17.1294 38.6801 16.598 38.352L15.07 40.936C15.162 40.99 15.29 41.09 15.51 41.396C15.75 41.726 16.022 42.182 16.45 42.908L19.034 41.38ZM12.53 40.67C13.422 40.698 13.99 40.718 14.424 40.77C14.832 40.82 14.986 40.886 15.07 40.936L16.596 38.354C16.016 38.012 15.408 37.868 14.786 37.794C14.19 37.72 13.464 37.698 12.626 37.67L12.53 40.67ZM23.55 42.908C23.978 42.182 24.25 41.726 24.49 41.396C24.71 41.09 24.838 40.99 24.93 40.936L23.404 38.354C22.8726 38.6821 22.4161 39.1182 22.064 39.634C21.72 40.104 21.368 40.702 20.966 41.38L23.55 42.908ZM27.374 37.67C26.536 37.698 25.81 37.72 25.214 37.792C24.594 37.868 23.982 38.014 23.404 38.354L24.93 40.936C25.014 40.886 25.168 40.82 25.576 40.77C26.008 40.718 26.578 40.698 27.47 40.67L27.374 37.67Z" fill="black" fill-opacity="0.2"/>
<path d="M26.7523 5.49805H31.2523V2.49805H26.7523V5.49805ZM42.5023 16.748V18.248H45.5023V16.748H42.5023ZM42.5023 18.248C42.5023 20.016 42.5023 21.268 42.4343 22.248C42.3683 23.22 42.2423 23.818 42.0463 24.294L44.8163 25.442C45.1903 24.54 45.3503 23.576 45.4263 22.454C45.5023 21.346 45.5023 19.974 45.5023 18.248H42.5023ZM42.0463 24.294C41.7448 25.0222 41.3027 25.6839 40.7454 26.2412C40.1881 26.7985 39.5265 27.2405 38.7983 27.542L39.9463 30.314C41.0382 29.8615 42.0303 29.1984 42.8659 28.3624C43.7015 27.5265 44.3642 26.5341 44.8163 25.442L42.0463 24.294ZM31.2523 5.49805C33.7363 5.49805 35.4923 5.50005 36.8603 5.63205C38.2023 5.76005 39.0103 6.00005 39.6363 6.38405L41.2043 3.82605C40.0283 3.10605 38.7063 2.79405 37.1443 2.64605C35.6043 2.49805 33.6783 2.50005 31.2523 2.50005V5.49805ZM45.5023 16.75C45.5023 14.324 45.5023 12.4 45.3563 10.858C45.2083 9.29605 44.8963 7.97405 44.1763 6.79805L41.6163 8.36605C42.0023 8.99205 42.2423 9.80005 42.3703 11.142C42.5003 12.508 42.5023 14.266 42.5023 16.75H45.5023ZM39.6363 6.38405C40.4432 6.87865 41.1217 7.55912 41.6163 8.36605L44.1763 6.79805C43.4335 5.58647 42.4164 4.56802 41.2043 3.82605L39.6363 6.38405ZM26.7523 2.50005C24.3263 2.50005 22.4023 2.50005 20.8603 2.64405C19.2983 2.79405 17.9763 3.10405 16.8003 3.82605L18.3663 6.38605C18.9943 6.00005 19.8023 5.76005 21.1463 5.63205C22.5103 5.50205 24.2663 5.49805 26.7523 5.49805V2.50005ZM16.8003 3.82605C15.5887 4.56883 14.5703 5.58797 13.8283 6.80005L16.3863 8.36805C16.8809 7.56112 17.5594 6.88065 18.3663 6.38605L16.8003 3.82605ZM15.5663 12.08C15.6663 10.16 15.9163 9.13405 16.3863 8.36805L13.8283 6.80005C12.9543 8.22605 12.6763 9.87605 12.5703 11.924L15.5663 12.08ZM36.0523 30.972C37.5863 30.92 38.8203 30.784 39.9463 30.318L38.7983 27.546C38.1943 27.796 37.4103 27.926 35.9523 27.974L36.0523 30.972Z" fill="#131313"/>
<path d="M26.7523 5.49805H31.2523V2.49805H26.7523V5.49805ZM42.5023 16.748V18.248H45.5023V16.748H42.5023ZM42.5023 18.248C42.5023 20.016 42.5023 21.268 42.4343 22.248C42.3683 23.22 42.2423 23.818 42.0463 24.294L44.8163 25.442C45.1903 24.54 45.3503 23.576 45.4263 22.454C45.5023 21.346 45.5023 19.974 45.5023 18.248H42.5023ZM42.0463 24.294C41.7448 25.0222 41.3027 25.6839 40.7454 26.2412C40.1881 26.7985 39.5265 27.2405 38.7983 27.542L39.9463 30.314C41.0382 29.8615 42.0303 29.1984 42.8659 28.3624C43.7015 27.5265 44.3642 26.5341 44.8163 25.442L42.0463 24.294ZM31.2523 5.49805C33.7363 5.49805 35.4923 5.50005 36.8603 5.63205C38.2023 5.76005 39.0103 6.00005 39.6363 6.38405L41.2043 3.82605C40.0283 3.10605 38.7063 2.79405 37.1443 2.64605C35.6043 2.49805 33.6783 2.50005 31.2523 2.50005V5.49805ZM45.5023 16.75C45.5023 14.324 45.5023 12.4 45.3563 10.858C45.2083 9.29605 44.8963 7.97405 44.1763 6.79805L41.6163 8.36605C42.0023 8.99205 42.2423 9.80005 42.3703 11.142C42.5003 12.508 42.5023 14.266 42.5023 16.75H45.5023ZM39.6363 6.38405C40.4432 6.87865 41.1217 7.55912 41.6163 8.36605L44.1763 6.79805C43.4335 5.58647 42.4164 4.56802 41.2043 3.82605L39.6363 6.38405ZM26.7523 2.50005C24.3263 2.50005 22.4023 2.50005 20.8603 2.64405C19.2983 2.79405 17.9763 3.10405 16.8003 3.82605L18.3663 6.38605C18.9943 6.00005 19.8023 5.76005 21.1463 5.63205C22.5103 5.50205 24.2663 5.49805 26.7523 5.49805V2.50005ZM16.8003 3.82605C15.5887 4.56883 14.5703 5.58797 13.8283 6.80005L16.3863 8.36805C16.8809 7.56112 17.5594 6.88065 18.3663 6.38605L16.8003 3.82605ZM15.5663 12.08C15.6663 10.16 15.9163 9.13405 16.3863 8.36805L13.8283 6.80005C12.9543 8.22605 12.6763 9.87605 12.5703 11.924L15.5663 12.08ZM36.0523 30.972C37.5863 30.92 38.8203 30.784 39.9463 30.318L38.7983 27.546C38.1943 27.796 37.4103 27.926 35.9523 27.974L36.0523 30.972Z" fill="black" fill-opacity="0.2"/>
<path d="M26.7523 5.49805H31.2523V2.49805H26.7523V5.49805ZM42.5023 16.748V18.248H45.5023V16.748H42.5023ZM42.5023 18.248C42.5023 20.016 42.5023 21.268 42.4343 22.248C42.3683 23.22 42.2423 23.818 42.0463 24.294L44.8163 25.442C45.1903 24.54 45.3503 23.576 45.4263 22.454C45.5023 21.346 45.5023 19.974 45.5023 18.248H42.5023ZM42.0463 24.294C41.7448 25.0222 41.3027 25.6839 40.7454 26.2412C40.1881 26.7985 39.5265 27.2405 38.7983 27.542L39.9463 30.314C41.0382 29.8615 42.0303 29.1984 42.8659 28.3624C43.7015 27.5265 44.3642 26.5341 44.8163 25.442L42.0463 24.294ZM31.2523 5.49805C33.7363 5.49805 35.4923 5.50005 36.8603 5.63205C38.2023 5.76005 39.0103 6.00005 39.6363 6.38405L41.2043 3.82605C40.0283 3.10605 38.7063 2.79405 37.1443 2.64605C35.6043 2.49805 33.6783 2.50005 31.2523 2.50005V5.49805ZM45.5023 16.75C45.5023 14.324 45.5023 12.4 45.3563 10.858C45.2083 9.29605 44.8963 7.97405 44.1763 6.79805L41.6163 8.36605C42.0023 8.99205 42.2423 9.80005 42.3703 11.142C42.5003 12.508 42.5023 14.266 42.5023 16.75H45.5023ZM39.6363 6.38405C40.4432 6.87865 41.1217 7.55912 41.6163 8.36605L44.1763 6.79805C43.4335 5.58647 42.4164 4.56802 41.2043 3.82605L39.6363 6.38405ZM26.7523 2.50005C24.3263 2.50005 22.4023 2.50005 20.8603 2.64405C19.2983 2.79405 17.9763 3.10405 16.8003 3.82605L18.3663 6.38605C18.9943 6.00005 19.8023 5.76005 21.1463 5.63205C22.5103 5.50205 24.2663 5.49805 26.7523 5.49805V2.50005ZM16.8003 3.82605C15.5887 4.56883 14.5703 5.58797 13.8283 6.80005L16.3863 8.36805C16.8809 7.56112 17.5594 6.88065 18.3663 6.38605L16.8003 3.82605ZM15.5663 12.08C15.6663 10.16 15.9163 9.13405 16.3863 8.36805L13.8283 6.80005C12.9543 8.22605 12.6763 9.87605 12.5703 11.924L15.5663 12.08ZM36.0523 30.972C37.5863 30.92 38.8203 30.784 39.9463 30.318L38.7983 27.546C38.1943 27.796 37.4103 27.926 35.9523 27.974L36.0523 30.972Z" fill="black" fill-opacity="0.2"/>
<path d="M26.7523 5.49805H31.2523V2.49805H26.7523V5.49805ZM42.5023 16.748V18.248H45.5023V16.748H42.5023ZM42.5023 18.248C42.5023 20.016 42.5023 21.268 42.4343 22.248C42.3683 23.22 42.2423 23.818 42.0463 24.294L44.8163 25.442C45.1903 24.54 45.3503 23.576 45.4263 22.454C45.5023 21.346 45.5023 19.974 45.5023 18.248H42.5023ZM42.0463 24.294C41.7448 25.0222 41.3027 25.6839 40.7454 26.2412C40.1881 26.7985 39.5265 27.2405 38.7983 27.542L39.9463 30.314C41.0382 29.8615 42.0303 29.1984 42.8659 28.3624C43.7015 27.5265 44.3642 26.5341 44.8163 25.442L42.0463 24.294ZM31.2523 5.49805C33.7363 5.49805 35.4923 5.50005 36.8603 5.63205C38.2023 5.76005 39.0103 6.00005 39.6363 6.38405L41.2043 3.82605C40.0283 3.10605 38.7063 2.79405 37.1443 2.64605C35.6043 2.49805 33.6783 2.50005 31.2523 2.50005V5.49805ZM45.5023 16.75C45.5023 14.324 45.5023 12.4 45.3563 10.858C45.2083 9.29605 44.8963 7.97405 44.1763 6.79805L41.6163 8.36605C42.0023 8.99205 42.2423 9.80005 42.3703 11.142C42.5003 12.508 42.5023 14.266 42.5023 16.75H45.5023ZM39.6363 6.38405C40.4432 6.87865 41.1217 7.55912 41.6163 8.36605L44.1763 6.79805C43.4335 5.58647 42.4164 4.56802 41.2043 3.82605L39.6363 6.38405ZM26.7523 2.50005C24.3263 2.50005 22.4023 2.50005 20.8603 2.64405C19.2983 2.79405 17.9763 3.10405 16.8003 3.82605L18.3663 6.38605C18.9943 6.00005 19.8023 5.76005 21.1463 5.63205C22.5103 5.50205 24.2663 5.49805 26.7523 5.49805V2.50005ZM16.8003 3.82605C15.5887 4.56883 14.5703 5.58797 13.8283 6.80005L16.3863 8.36805C16.8809 7.56112 17.5594 6.88065 18.3663 6.38605L16.8003 3.82605ZM15.5663 12.08C15.6663 10.16 15.9163 9.13405 16.3863 8.36805L13.8283 6.80005C12.9543 8.22605 12.6763 9.87605 12.5703 11.924L15.5663 12.08ZM36.0523 30.972C37.5863 30.92 38.8203 30.784 39.9463 30.318L38.7983 27.546C38.1943 27.796 37.4103 27.926 35.9523 27.974L36.0523 30.972Z" fill="black" fill-opacity="0.2"/>
</svg>
