<svg width="18" height="17" viewBox="0 0 18 17" fill="none" xmlns="http://www.w3.org/2000/svg">
<path d="M4.63672 5.75C6.01743 5.75 7.13672 4.63071 7.13672 3.25C7.13672 1.86929 6.01743 0.75 4.63672 0.75C3.25601 0.75 2.13672 1.86929 2.13672 3.25C2.13672 4.63071 3.25601 5.75 4.63672 5.75Z" stroke="#6C757D" stroke-width="1.5"/>
<path d="M7.13681 9.08301H3.65181C3.05565 9.08302 2.47911 9.29607 2.0262 9.68374C1.57329 10.0714 1.27382 10.6082 1.18181 11.1972L0.770143 13.8247C0.732819 14.0626 0.747486 14.3057 0.813135 14.5374C0.878784 14.7691 0.993854 14.9838 1.15043 15.1667C1.307 15.3497 1.50135 15.4965 1.72012 15.5971C1.93888 15.6978 2.17684 15.7498 2.41764 15.7497H6.30348M16.8368 13.8255L16.4251 11.1972C16.3331 10.6082 16.0337 10.0714 15.5808 9.68374C15.1278 9.29607 14.5513 9.08302 13.9551 9.08301H11.9851C11.389 9.08302 10.8124 9.29607 10.3595 9.68374C9.90662 10.0714 9.60715 10.6082 9.51514 11.1972L9.10431 13.8255C9.06713 14.0633 9.08188 14.3063 9.14754 14.5378C9.2132 14.7693 9.32822 14.9838 9.48469 15.1667C9.64115 15.3495 9.83536 15.4963 10.0539 15.5969C10.2725 15.6976 10.5103 15.7497 10.751 15.7497H15.1893C15.43 15.7497 15.6677 15.6976 15.8863 15.5969C16.1049 15.4963 16.2991 15.3495 16.4556 15.1667C16.6121 14.9838 16.7271 14.7693 16.7927 14.5378C16.8584 14.3063 16.874 14.0633 16.8368 13.8255Z" stroke="#6C757D" stroke-width="1.5" stroke-linecap="round" stroke-linejoin="round"/>
<path d="M12.9688 5.75C14.3495 5.75 15.4688 4.63071 15.4688 3.25C15.4688 1.86929 14.3495 0.75 12.9688 0.75C11.588 0.75 10.4688 1.86929 10.4688 3.25C10.4688 4.63071 11.588 5.75 12.9688 5.75Z" stroke="#6C757D" stroke-width="1.5"/>
</svg>
