<svg width="12" height="18" viewBox="0 0 12 18" fill="none" xmlns="http://www.w3.org/2000/svg">
<path d="M11.8198 4.69302L7.61987 0.193081C7.56707 0.13027 7.50217 0.0804936 7.42965 0.0471956C7.35714 0.0138975 7.27874 -0.00212819 7.19987 0.000226542H1.19998C0.882017 0.001244 0.577349 0.137028 0.352515 0.377923C0.127681 0.618818 0.000949619 0.945249 0 1.28592V16.7143C0.000949619 17.055 0.127681 17.3814 0.352515 17.6223C0.577349 17.8632 0.882017 17.999 1.19998 18H10.7998C11.1178 17.999 11.4224 17.8632 11.6473 17.6223C11.8721 17.3814 11.9988 17.055 11.9998 16.7143V5.14302C12.002 5.05852 11.987 4.97452 11.9559 4.89683C11.9249 4.81913 11.8784 4.74959 11.8198 4.69302ZM7.19987 1.54306L10.5598 5.14302H7.19987V1.54306ZM10.7998 16.7143H1.19998V1.28592H5.99989V5.14302C6.00084 5.48369 6.12757 5.81013 6.35241 6.05102C6.57724 6.29192 6.88191 6.4277 7.19987 6.42872H10.7998V16.7143Z" fill="#131313"/>
<path d="M11.8198 4.69302L7.61987 0.193081C7.56707 0.13027 7.50217 0.0804936 7.42965 0.0471956C7.35714 0.0138975 7.27874 -0.00212819 7.19987 0.000226542H1.19998C0.882017 0.001244 0.577349 0.137028 0.352515 0.377923C0.127681 0.618818 0.000949619 0.945249 0 1.28592V16.7143C0.000949619 17.055 0.127681 17.3814 0.352515 17.6223C0.577349 17.8632 0.882017 17.999 1.19998 18H10.7998C11.1178 17.999 11.4224 17.8632 11.6473 17.6223C11.8721 17.3814 11.9988 17.055 11.9998 16.7143V5.14302C12.002 5.05852 11.987 4.97452 11.9559 4.89683C11.9249 4.81913 11.8784 4.74959 11.8198 4.69302ZM7.19987 1.54306L10.5598 5.14302H7.19987V1.54306ZM10.7998 16.7143H1.19998V1.28592H5.99989V5.14302C6.00084 5.48369 6.12757 5.81013 6.35241 6.05102C6.57724 6.29192 6.88191 6.4277 7.19987 6.42872H10.7998V16.7143Z" fill="black" fill-opacity="0.2"/>
<path d="M11.8198 4.69302L7.61987 0.193081C7.56707 0.13027 7.50217 0.0804936 7.42965 0.0471956C7.35714 0.0138975 7.27874 -0.00212819 7.19987 0.000226542H1.19998C0.882017 0.001244 0.577349 0.137028 0.352515 0.377923C0.127681 0.618818 0.000949619 0.945249 0 1.28592V16.7143C0.000949619 17.055 0.127681 17.3814 0.352515 17.6223C0.577349 17.8632 0.882017 17.999 1.19998 18H10.7998C11.1178 17.999 11.4224 17.8632 11.6473 17.6223C11.8721 17.3814 11.9988 17.055 11.9998 16.7143V5.14302C12.002 5.05852 11.987 4.97452 11.9559 4.89683C11.9249 4.81913 11.8784 4.74959 11.8198 4.69302ZM7.19987 1.54306L10.5598 5.14302H7.19987V1.54306ZM10.7998 16.7143H1.19998V1.28592H5.99989V5.14302C6.00084 5.48369 6.12757 5.81013 6.35241 6.05102C6.57724 6.29192 6.88191 6.4277 7.19987 6.42872H10.7998V16.7143Z" fill="black" fill-opacity="0.2"/>
<path d="M11.8198 4.69302L7.61987 0.193081C7.56707 0.13027 7.50217 0.0804936 7.42965 0.0471956C7.35714 0.0138975 7.27874 -0.00212819 7.19987 0.000226542H1.19998C0.882017 0.001244 0.577349 0.137028 0.352515 0.377923C0.127681 0.618818 0.000949619 0.945249 0 1.28592V16.7143C0.000949619 17.055 0.127681 17.3814 0.352515 17.6223C0.577349 17.8632 0.882017 17.999 1.19998 18H10.7998C11.1178 17.999 11.4224 17.8632 11.6473 17.6223C11.8721 17.3814 11.9988 17.055 11.9998 16.7143V5.14302C12.002 5.05852 11.987 4.97452 11.9559 4.89683C11.9249 4.81913 11.8784 4.74959 11.8198 4.69302ZM7.19987 1.54306L10.5598 5.14302H7.19987V1.54306ZM10.7998 16.7143H1.19998V1.28592H5.99989V5.14302C6.00084 5.48369 6.12757 5.81013 6.35241 6.05102C6.57724 6.29192 6.88191 6.4277 7.19987 6.42872H10.7998V16.7143Z" fill="black" fill-opacity="0.2"/>
</svg>
