<svg width="23" height="20" viewBox="0 0 23 20" fill="none" xmlns="http://www.w3.org/2000/svg">
<path d="M2 2.75C2 2.33579 2.33579 2 2.75 2H7.25C7.66421 2 8 2.33579 8 2.75C8 3.16421 7.66421 3.5 7.25 3.5H2.75C2.33579 3.5 2 3.16421 2 2.75Z" fill="#131313"/>
<path d="M2 2.75C2 2.33579 2.33579 2 2.75 2H7.25C7.66421 2 8 2.33579 8 2.75C8 3.16421 7.66421 3.5 7.25 3.5H2.75C2.33579 3.5 2 3.16421 2 2.75Z" fill="black" fill-opacity="0.2"/>
<path d="M2 2.75C2 2.33579 2.33579 2 2.75 2H7.25C7.66421 2 8 2.33579 8 2.75C8 3.16421 7.66421 3.5 7.25 3.5H2.75C2.33579 3.5 2 3.16421 2 2.75Z" fill="black" fill-opacity="0.2"/>
<path d="M2 2.75C2 2.33579 2.33579 2 2.75 2H7.25C7.66421 2 8 2.33579 8 2.75C8 3.16421 7.66421 3.5 7.25 3.5H2.75C2.33579 3.5 2 3.16421 2 2.75Z" fill="black" fill-opacity="0.2"/>
<path d="M2 17.75C2 17.3358 2.33579 17 2.75 17H7.25C7.66421 17 8 17.3358 8 17.75C8 18.1642 7.66421 18.5 7.25 18.5H2.75C2.33579 18.5 2 18.1642 2 17.75Z" fill="#131313"/>
<path d="M2 17.75C2 17.3358 2.33579 17 2.75 17H7.25C7.66421 17 8 17.3358 8 17.75C8 18.1642 7.66421 18.5 7.25 18.5H2.75C2.33579 18.5 2 18.1642 2 17.75Z" fill="black" fill-opacity="0.2"/>
<path d="M2 17.75C2 17.3358 2.33579 17 2.75 17H7.25C7.66421 17 8 17.3358 8 17.75C8 18.1642 7.66421 18.5 7.25 18.5H2.75C2.33579 18.5 2 18.1642 2 17.75Z" fill="black" fill-opacity="0.2"/>
<path d="M2 17.75C2 17.3358 2.33579 17 2.75 17H7.25C7.66421 17 8 17.3358 8 17.75C8 18.1642 7.66421 18.5 7.25 18.5H2.75C2.33579 18.5 2 18.1642 2 17.75Z" fill="black" fill-opacity="0.2"/>
<path d="M9.5 2.75C9.5 2.33579 9.83579 2 10.25 2H20.75C21.1642 2 21.5 2.33579 21.5 2.75C21.5 3.16421 21.1642 3.5 20.75 3.5H10.25C9.83579 3.5 9.5 3.16421 9.5 2.75Z" fill="#131313"/>
<path d="M9.5 2.75C9.5 2.33579 9.83579 2 10.25 2H20.75C21.1642 2 21.5 2.33579 21.5 2.75C21.5 3.16421 21.1642 3.5 20.75 3.5H10.25C9.83579 3.5 9.5 3.16421 9.5 2.75Z" fill="black" fill-opacity="0.2"/>
<path d="M9.5 2.75C9.5 2.33579 9.83579 2 10.25 2H20.75C21.1642 2 21.5 2.33579 21.5 2.75C21.5 3.16421 21.1642 3.5 20.75 3.5H10.25C9.83579 3.5 9.5 3.16421 9.5 2.75Z" fill="black" fill-opacity="0.2"/>
<path d="M9.5 2.75C9.5 2.33579 9.83579 2 10.25 2H20.75C21.1642 2 21.5 2.33579 21.5 2.75C21.5 3.16421 21.1642 3.5 20.75 3.5H10.25C9.83579 3.5 9.5 3.16421 9.5 2.75Z" fill="black" fill-opacity="0.2"/>
<path d="M9.5 17.75C9.5 17.3358 9.83579 17 10.25 17H20.75C21.1642 17 21.5 17.3358 21.5 17.75C21.5 18.1642 21.1642 18.5 20.75 18.5H10.25C9.83579 18.5 9.5 18.1642 9.5 17.75Z" fill="#131313"/>
<path d="M9.5 17.75C9.5 17.3358 9.83579 17 10.25 17H20.75C21.1642 17 21.5 17.3358 21.5 17.75C21.5 18.1642 21.1642 18.5 20.75 18.5H10.25C9.83579 18.5 9.5 18.1642 9.5 17.75Z" fill="black" fill-opacity="0.2"/>
<path d="M9.5 17.75C9.5 17.3358 9.83579 17 10.25 17H20.75C21.1642 17 21.5 17.3358 21.5 17.75C21.5 18.1642 21.1642 18.5 20.75 18.5H10.25C9.83579 18.5 9.5 18.1642 9.5 17.75Z" fill="black" fill-opacity="0.2"/>
<path d="M9.5 17.75C9.5 17.3358 9.83579 17 10.25 17H20.75C21.1642 17 21.5 17.3358 21.5 17.75C21.5 18.1642 21.1642 18.5 20.75 18.5H10.25C9.83579 18.5 9.5 18.1642 9.5 17.75Z" fill="black" fill-opacity="0.2"/>
<path d="M1.5 10.75C1.5 10.3358 1.83579 10 2.25 10H14.75C15.1642 10 15.5 10.3358 15.5 10.75C15.5 11.1642 15.1642 11.5 14.75 11.5H2.25C1.83579 11.5 1.5 11.1642 1.5 10.75Z" fill="#131313"/>
<path d="M1.5 10.75C1.5 10.3358 1.83579 10 2.25 10H14.75C15.1642 10 15.5 10.3358 15.5 10.75C15.5 11.1642 15.1642 11.5 14.75 11.5H2.25C1.83579 11.5 1.5 11.1642 1.5 10.75Z" fill="black" fill-opacity="0.2"/>
<path d="M1.5 10.75C1.5 10.3358 1.83579 10 2.25 10H14.75C15.1642 10 15.5 10.3358 15.5 10.75C15.5 11.1642 15.1642 11.5 14.75 11.5H2.25C1.83579 11.5 1.5 11.1642 1.5 10.75Z" fill="black" fill-opacity="0.2"/>
<path d="M1.5 10.75C1.5 10.3358 1.83579 10 2.25 10H14.75C15.1642 10 15.5 10.3358 15.5 10.75C15.5 11.1642 15.1642 11.5 14.75 11.5H2.25C1.83579 11.5 1.5 11.1642 1.5 10.75Z" fill="black" fill-opacity="0.2"/>
<path d="M17.5 10.75C17.5 10.3358 17.8358 10 18.25 10H20.75C21.1642 10 21.5 10.3358 21.5 10.75C21.5 11.1642 21.1642 11.5 20.75 11.5H18.25C17.8358 11.5 17.5 11.1642 17.5 10.75Z" fill="#131313"/>
<path d="M17.5 10.75C17.5 10.3358 17.8358 10 18.25 10H20.75C21.1642 10 21.5 10.3358 21.5 10.75C21.5 11.1642 21.1642 11.5 20.75 11.5H18.25C17.8358 11.5 17.5 11.1642 17.5 10.75Z" fill="black" fill-opacity="0.2"/>
<path d="M17.5 10.75C17.5 10.3358 17.8358 10 18.25 10H20.75C21.1642 10 21.5 10.3358 21.5 10.75C21.5 11.1642 21.1642 11.5 20.75 11.5H18.25C17.8358 11.5 17.5 11.1642 17.5 10.75Z" fill="black" fill-opacity="0.2"/>
<path d="M17.5 10.75C17.5 10.3358 17.8358 10 18.25 10H20.75C21.1642 10 21.5 10.3358 21.5 10.75C21.5 11.1642 21.1642 11.5 20.75 11.5H18.25C17.8358 11.5 17.5 11.1642 17.5 10.75Z" fill="black" fill-opacity="0.2"/>
<path d="M7.75 5C7.33579 5 7 4.66421 7 4.25V0.75C7 0.335786 7.33579 0 7.75 0C8.16421 0 8.5 0.335786 8.5 0.75V4.25C8.5 4.66421 8.16421 5 7.75 5Z" fill="#131313"/>
<path d="M7.75 5C7.33579 5 7 4.66421 7 4.25V0.75C7 0.335786 7.33579 0 7.75 0C8.16421 0 8.5 0.335786 8.5 0.75V4.25C8.5 4.66421 8.16421 5 7.75 5Z" fill="black" fill-opacity="0.2"/>
<path d="M7.75 5C7.33579 5 7 4.66421 7 4.25V0.75C7 0.335786 7.33579 0 7.75 0C8.16421 0 8.5 0.335786 8.5 0.75V4.25C8.5 4.66421 8.16421 5 7.75 5Z" fill="black" fill-opacity="0.2"/>
<path d="M7.75 5C7.33579 5 7 4.66421 7 4.25V0.75C7 0.335786 7.33579 0 7.75 0C8.16421 0 8.5 0.335786 8.5 0.75V4.25C8.5 4.66421 8.16421 5 7.75 5Z" fill="black" fill-opacity="0.2"/>
<path d="M7.75 20C7.33579 20 7 19.6642 7 19.25V15.75C7 15.3358 7.33579 15 7.75 15C8.16421 15 8.5 15.3358 8.5 15.75V19.25C8.5 19.6642 8.16421 20 7.75 20Z" fill="#131313"/>
<path d="M7.75 20C7.33579 20 7 19.6642 7 19.25V15.75C7 15.3358 7.33579 15 7.75 15C8.16421 15 8.5 15.3358 8.5 15.75V19.25C8.5 19.6642 8.16421 20 7.75 20Z" fill="black" fill-opacity="0.2"/>
<path d="M7.75 20C7.33579 20 7 19.6642 7 19.25V15.75C7 15.3358 7.33579 15 7.75 15C8.16421 15 8.5 15.3358 8.5 15.75V19.25C8.5 19.6642 8.16421 20 7.75 20Z" fill="black" fill-opacity="0.2"/>
<path d="M7.75 20C7.33579 20 7 19.6642 7 19.25V15.75C7 15.3358 7.33579 15 7.75 15C8.16421 15 8.5 15.3358 8.5 15.75V19.25C8.5 19.6642 8.16421 20 7.75 20Z" fill="black" fill-opacity="0.2"/>
<path d="M17.75 14C17.3358 14 17 13.6642 17 13.25V8.75C17 8.33579 17.3358 8 17.75 8C18.1642 8 18.5 8.33579 18.5 8.75V13.25C18.5 13.6642 18.1642 14 17.75 14Z" fill="#131313"/>
<path d="M17.75 14C17.3358 14 17 13.6642 17 13.25V8.75C17 8.33579 17.3358 8 17.75 8C18.1642 8 18.5 8.33579 18.5 8.75V13.25C18.5 13.6642 18.1642 14 17.75 14Z" fill="black" fill-opacity="0.2"/>
<path d="M17.75 14C17.3358 14 17 13.6642 17 13.25V8.75C17 8.33579 17.3358 8 17.75 8C18.1642 8 18.5 8.33579 18.5 8.75V13.25C18.5 13.6642 18.1642 14 17.75 14Z" fill="black" fill-opacity="0.2"/>
<path d="M17.75 14C17.3358 14 17 13.6642 17 13.25V8.75C17 8.33579 17.3358 8 17.75 8C18.1642 8 18.5 8.33579 18.5 8.75V13.25C18.5 13.6642 18.1642 14 17.75 14Z" fill="black" fill-opacity="0.2"/>
</svg>
