<svg width="10" height="10" viewBox="0 0 10 10" fill="none" xmlns="http://www.w3.org/2000/svg">
<path d="M9 1L3.63396 8.66463C3.56316 8.76635 3.46919 8.8498 3.35981 8.90809C3.25043 8.96638 3.12877 8.99784 3.00484 8.99989C2.88091 9.00194 2.75827 8.97451 2.64702 8.91987C2.53577 8.86523 2.4391 8.78493 2.36498 8.6856L1 6.86606" stroke="#131313" stroke-width="2" stroke-linecap="round" stroke-linejoin="round"/>
<path d="M9 1L3.63396 8.66463C3.56316 8.76635 3.46919 8.8498 3.35981 8.90809C3.25043 8.96638 3.12877 8.99784 3.00484 8.99989C2.88091 9.00194 2.75827 8.97451 2.64702 8.91987C2.53577 8.86523 2.4391 8.78493 2.36498 8.6856L1 6.86606" stroke="black" stroke-opacity="0.2" stroke-width="2" stroke-linecap="round" stroke-linejoin="round"/>
<path d="M9 1L3.63396 8.66463C3.56316 8.76635 3.46919 8.8498 3.35981 8.90809C3.25043 8.96638 3.12877 8.99784 3.00484 8.99989C2.88091 9.00194 2.75827 8.97451 2.64702 8.91987C2.53577 8.86523 2.4391 8.78493 2.36498 8.6856L1 6.86606" stroke="black" stroke-opacity="0.2" stroke-width="2" stroke-linecap="round" stroke-linejoin="round"/>
<path d="M9 1L3.63396 8.66463C3.56316 8.76635 3.46919 8.8498 3.35981 8.90809C3.25043 8.96638 3.12877 8.99784 3.00484 8.99989C2.88091 9.00194 2.75827 8.97451 2.64702 8.91987C2.53577 8.86523 2.4391 8.78493 2.36498 8.6856L1 6.86606" stroke="black" stroke-opacity="0.2" stroke-width="2" stroke-linecap="round" stroke-linejoin="round"/>
</svg>
