<svg width="19" height="17" viewBox="0 0 19 17" fill="none" xmlns="http://www.w3.org/2000/svg">
<path d="M9.7575 0.133419C9.6466 0.046956 9.51 0 9.36938 0C9.22875 0 9.09215 0.046956 8.98125 0.133419L0 7.13654L0.776875 8.11905L1.875 7.26279V14.9997C1.87566 15.331 2.00757 15.6485 2.24185 15.8828C2.47612 16.1171 2.79368 16.249 3.125 16.2497H15.625C15.9563 16.249 16.2739 16.1171 16.5082 15.8828C16.7424 15.6485 16.8743 15.331 16.875 14.9997V7.26842L17.9731 8.12467L18.75 7.14217L9.7575 0.133419ZM10.625 14.9997H8.125V9.99967H10.625V14.9997ZM11.875 14.9997V9.99967C11.8747 9.66825 11.7429 9.3505 11.5085 9.11615C11.2742 8.8818 10.9564 8.75 10.625 8.74967H8.125C7.79358 8.75 7.47583 8.8818 7.24148 9.11615C7.00713 9.3505 6.87533 9.66825 6.875 9.99967V14.9997H3.125V6.28842L9.375 1.41967L15.625 6.29467V14.9997H11.875Z" fill="#6C757D"/>
</svg>
