<svg width="20" height="20" viewBox="0 0 20 20" fill="none" xmlns="http://www.w3.org/2000/svg">
<path d="M10.001 6.4541C10.9411 6.45422 11.843 6.82742 12.5078 7.49219C13.1727 8.15709 13.5459 9.05969 13.5459 10C13.5458 10.9402 13.1726 11.842 12.5078 12.5068C11.843 13.1716 10.9411 13.5448 10.001 13.5449C9.06066 13.5449 8.15807 13.1717 7.49316 12.5068C6.82839 11.842 6.4552 10.9401 6.45508 10C6.45508 9.05969 6.82826 8.15709 7.49316 7.49219C8.15807 6.82729 9.06066 6.4541 10.001 6.4541Z" stroke="#4E79EB" stroke-width="2"/>
<path fill-rule="evenodd" clip-rule="evenodd" d="M10 0C10.2411 0 10.4723 0.0957789 10.6428 0.266267C10.8133 0.436754 10.9091 0.667985 10.9091 0.909091V1.81818C10.9091 2.05929 10.8133 2.29052 10.6428 2.46101C10.4723 2.63149 10.2411 2.72727 10 2.72727C9.75889 2.72727 9.52766 2.63149 9.35718 2.46101C9.18669 2.29052 9.09091 2.05929 9.09091 1.81818V0.909091C9.09091 0.667985 9.18669 0.436754 9.35718 0.266267C9.52766 0.0957789 9.75889 0 10 0ZM2.08455 2.08455C2.25503 1.91412 2.48621 1.81838 2.72727 1.81838C2.96833 1.81838 3.19952 1.91412 3.37 2.08455L4.73364 3.44818C4.89923 3.61964 4.99087 3.84928 4.98879 4.08764C4.98672 4.326 4.89112 4.55401 4.72256 4.72256C4.55401 4.89112 4.326 4.98672 4.08764 4.98879C3.84928 4.99087 3.61964 4.89923 3.44818 4.73364L2.08455 3.37C1.91412 3.19952 1.81838 2.96833 1.81838 2.72727C1.81838 2.48621 1.91412 2.25503 2.08455 2.08455ZM17.9155 2.08455C18.0859 2.25503 18.1816 2.48621 18.1816 2.72727C18.1816 2.96833 18.0859 3.19952 17.9155 3.37L16.5518 4.73364C16.468 4.82046 16.3676 4.88972 16.2567 4.93737C16.1458 4.98501 16.0265 5.01009 15.9058 5.01114C15.7851 5.01219 15.6654 4.98918 15.5537 4.94347C15.442 4.89776 15.3405 4.83026 15.2551 4.7449C15.1697 4.65955 15.1022 4.55805 15.0565 4.44632C15.0108 4.3346 14.9878 4.21489 14.9889 4.09418C14.9899 3.97347 15.015 3.85418 15.0626 3.74327C15.1103 3.63236 15.1795 3.53204 15.2664 3.44818L16.63 2.08455C16.8005 1.91412 17.0317 1.81838 17.2727 1.81838C17.5138 1.81838 17.745 1.91412 17.9155 2.08455ZM0 10C0 9.75889 0.0957789 9.52766 0.266267 9.35718C0.436754 9.18669 0.667985 9.09091 0.909091 9.09091H1.81818C2.05929 9.09091 2.29052 9.18669 2.46101 9.35718C2.63149 9.52766 2.72727 9.75889 2.72727 10C2.72727 10.2411 2.63149 10.4723 2.46101 10.6428C2.29052 10.8133 2.05929 10.9091 1.81818 10.9091H0.909091C0.667985 10.9091 0.436754 10.8133 0.266267 10.6428C0.0957789 10.4723 0 10.2411 0 10ZM17.2727 10C17.2727 9.75889 17.3685 9.52766 17.539 9.35718C17.7095 9.18669 17.9407 9.09091 18.1818 9.09091H19.0909C19.332 9.09091 19.5632 9.18669 19.7337 9.35718C19.9042 9.52766 20 9.75889 20 10C20 10.2411 19.9042 10.4723 19.7337 10.6428C19.5632 10.8133 19.332 10.9091 19.0909 10.9091H18.1818C17.9407 10.9091 17.7095 10.8133 17.539 10.6428C17.3685 10.4723 17.2727 10.2411 17.2727 10ZM4.73364 15.2664C4.90406 15.4368 4.99981 15.668 4.99981 15.9091C4.99981 16.1502 4.90406 16.3813 4.73364 16.5518L3.37 17.9155C3.19854 18.0811 2.9689 18.1727 2.73054 18.1706C2.49218 18.1685 2.26417 18.0729 2.09562 17.9044C1.92707 17.7358 1.83146 17.5078 1.82939 17.2695C1.82732 17.0311 1.91895 16.8015 2.08455 16.63L3.44818 15.2664C3.61866 15.0959 3.84985 15.0002 4.09091 15.0002C4.33197 15.0002 4.56316 15.0959 4.73364 15.2664ZM15.2664 15.2664C15.4368 15.0959 15.668 15.0002 15.9091 15.0002C16.1502 15.0002 16.3813 15.0959 16.5518 15.2664L17.9155 16.63C18.0811 16.8015 18.1727 17.0311 18.1706 17.2695C18.1685 17.5078 18.0729 17.7358 17.9044 17.9044C17.7358 18.0729 17.5078 18.1685 17.2695 18.1706C17.0311 18.1727 16.8015 18.0811 16.63 17.9155L15.2664 16.5518C15.0959 16.3813 15.0002 16.1502 15.0002 15.9091C15.0002 15.668 15.0959 15.4368 15.2664 15.2664ZM10 17.2727C10.2411 17.2727 10.4723 17.3685 10.6428 17.539C10.8133 17.7095 10.9091 17.9407 10.9091 18.1818V19.0909C10.9091 19.332 10.8133 19.5632 10.6428 19.7337C10.4723 19.9042 10.2411 20 10 20C9.75889 20 9.52766 19.9042 9.35718 19.7337C9.18669 19.5632 9.09091 19.332 9.09091 19.0909V18.1818C9.09091 17.9407 9.18669 17.7095 9.35718 17.539C9.52766 17.3685 9.75889 17.2727 10 17.2727Z" fill="#4E79EB"/>
</svg>
