<svg width="15" height="17" viewBox="0 0 15 17" fill="none" xmlns="http://www.w3.org/2000/svg">
<path d="M13.75 16.25H1.25C0.918581 16.2497 0.600831 16.1179 0.366482 15.8835C0.132133 15.6492 0.000330923 15.3314 0 15V6.25C0.000330923 5.91858 0.132133 5.60083 0.366482 5.36648C0.600831 5.13213 0.918581 5.00033 1.25 5H13.75C14.0814 5.00033 14.3992 5.13213 14.6335 5.36648C14.8679 5.60083 14.9997 5.91858 15 6.25V15C14.9997 15.3314 14.8679 15.6492 14.6335 15.8835C14.3992 16.1179 14.0814 16.2497 13.75 16.25ZM1.25 6.25V15H13.75V6.25H1.25ZM1.25 2.5H13.75V3.75H1.25V2.5ZM2.5 0H12.5V1.25H2.5V0Z" fill="#6C757D"/>
</svg>
