<svg width="14" height="18" viewBox="0 0 14 18" fill="none" xmlns="http://www.w3.org/2000/svg">
<path d="M6.75 1.28571C7.41751 1.28571 8.07003 1.47423 8.62505 1.82742C9.18007 2.18061 9.61265 2.68261 9.86809 3.26995C10.1235 3.85728 10.1904 4.50357 10.0602 5.12708C9.92993 5.75059 9.60849 6.32332 9.13649 6.77284C8.66448 7.22237 8.06312 7.5285 7.40843 7.65252C6.75374 7.77655 6.07514 7.71289 5.45844 7.46961C4.84174 7.22633 4.31464 6.81435 3.94379 6.28576C3.57294 5.75717 3.375 5.13573 3.375 4.5C3.375 3.64752 3.73058 2.82995 4.36351 2.22716C4.99645 1.62436 5.85489 1.28571 6.75 1.28571ZM6.75 0C5.81548 0 4.90195 0.26392 4.12493 0.758387C3.34791 1.25285 2.74229 1.95566 2.38467 2.77792C2.02705 3.60019 1.93347 4.50499 2.11579 5.37791C2.29811 6.25082 2.74812 7.05264 3.40892 7.68198C4.06972 8.31132 4.91164 8.7399 5.8282 8.91353C6.74476 9.08717 7.6948 8.99805 8.55818 8.65746C9.42156 8.31686 10.1595 7.74009 10.6787 7.00007C11.1979 6.26004 11.475 5.39002 11.475 4.5C11.475 3.30653 10.9772 2.16193 10.0911 1.31802C9.20497 0.474106 8.00315 0 6.75 0ZM13.5 18H12.15V14.7857C12.15 14.3636 12.0627 13.9456 11.8931 13.5557C11.7235 13.1657 11.4749 12.8113 11.1615 12.5129C10.8481 12.2144 10.476 11.9776 10.0666 11.8161C9.65708 11.6546 9.21821 11.5714 8.775 11.5714H4.725C3.82989 11.5714 2.97145 11.9101 2.33851 12.5129C1.70558 13.1157 1.35 13.9332 1.35 14.7857V18H0V14.7857C0 13.5922 0.497811 12.4476 1.38392 11.6037C2.27003 10.7598 3.47185 10.2857 4.725 10.2857H8.775C10.0281 10.2857 11.23 10.7598 12.1161 11.6037C13.0022 12.4476 13.5 13.5922 13.5 14.7857V18Z" fill="#6C757D"/>
</svg>
