<svg width="20" height="20" viewBox="0 0 20 20" fill="none" xmlns="http://www.w3.org/2000/svg">
<path d="M5.55527 17.6981C4.20535 16.9187 3.08412 15.798 2.30404 14.4485C1.52396 13.099 1.11246 11.5681 1.11083 10.0094C1.1092 8.45063 1.51748 6.91886 2.29474 5.56772C3.07199 4.21658 4.19087 3.09359 5.53915 2.31139" stroke="#F2F2F2" stroke-width="2.22222" stroke-linecap="round"/>
<path d="M18.8885 10C18.8885 11.5587 18.4786 13.0901 17.6999 14.4404C16.9213 15.7907 15.8012 16.9126 14.4521 17.6933C13.103 18.4741 11.5723 18.8864 10.0136 18.8889C8.45482 18.8913 6.92283 18.4838 5.57129 17.7073" stroke="#E1FF00" stroke-width="2.22222" stroke-linecap="round"/>
<path d="M5.55527 2.30193C6.90518 1.52255 8.43631 1.11186 9.99506 1.11104C11.5538 1.11023 13.0854 1.51932 14.4361 2.29728C15.7868 3.07524 16.9092 4.19471 17.6907 5.5434C18.4722 6.89209 18.8853 8.42257 18.8886 9.98131" stroke="#FF0000" stroke-width="2.22222" stroke-linecap="round"/>
<path d="M2.29464 5.56785C3.0719 4.21672 4.19078 3.09372 5.53906 2.31152" stroke="#F2F2F2" stroke-width="2.22222" stroke-linecap="round"/>
</svg>
