<svg width="64" height="64" viewBox="0 0 64 64" fill="none" xmlns="http://www.w3.org/2000/svg">
<path d="M17.7774 56.6352C13.4577 54.1412 9.86976 50.5551 7.3735 46.2367C4.87724 41.9183 3.56046 37.0194 3.55523 32.0314C3.55001 27.0434 4.85653 22.1417 7.34374 17.8181C9.83095 13.4944 13.4114 9.90086 17.7259 7.39782" stroke="#F2F2F2" stroke-width="7.11111" stroke-linecap="round"/>
<path d="M60.4451 32.001C60.4451 36.989 59.1335 41.8893 56.6417 46.2103C54.15 50.5313 50.5658 54.1212 46.2487 56.6197C41.9316 59.1182 37.0333 60.4376 32.0454 60.4454C27.0574 60.4532 22.155 59.1493 17.8301 56.6643" stroke="#E1FF00" stroke-width="7.11111" stroke-linecap="round"/>
<path d="M17.7774 7.36676C22.0972 4.87276 26.9968 3.55854 31.9848 3.55592C36.9728 3.55331 41.8737 4.8624 46.1961 7.35187C50.5184 9.84134 54.1101 13.4237 56.6109 17.7395C59.1117 22.0553 60.4336 26.9528 60.444 31.9408" stroke="#FF0000" stroke-width="7.11111" stroke-linecap="round"/>
<path d="M7.34345 17.8177C9.83065 13.4941 13.4111 9.9005 17.7256 7.39746" stroke="#F2F2F2" stroke-width="7.11111" stroke-linecap="round"/>
</svg>
