<svg width="44" height="44" viewBox="0 0 44 44" fill="none" xmlns="http://www.w3.org/2000/svg">
<path d="M12.2222 38.9371C9.25236 37.2225 6.78564 34.7571 5.06946 31.7882C3.35329 28.8192 2.448 25.4512 2.44441 22.022C2.44082 18.5928 3.33905 15.2229 5.049 12.2504C6.75896 9.27785 9.22051 6.80727 12.1867 5.08643" stroke="#F2F2F2" stroke-width="4.88889" stroke-linecap="round"/>
<path d="M41.5557 22.001C41.5557 25.4302 40.6539 28.7992 38.9408 31.7699C37.2278 34.7406 34.7636 37.2086 31.7956 38.9263C28.8276 40.6441 25.4601 41.5511 22.0308 41.5565C18.6016 41.5619 15.2312 40.6654 12.2578 38.957" stroke="#E1FF00" stroke-width="4.88889" stroke-linecap="round"/>
<path d="M12.2222 5.06483C15.192 3.3502 18.5605 2.44668 21.9897 2.44488C25.419 2.44308 28.7884 3.34308 31.76 5.0546C34.7316 6.76611 37.2009 9.22895 38.9202 12.1961C40.6395 15.1632 41.5483 18.5302 41.5555 21.9595" stroke="#FF0000" stroke-width="4.88889" stroke-linecap="round"/>
<path d="M5.0488 12.2499C6.75876 9.27736 9.22031 6.80678 12.1865 5.08594" stroke="#F2F2F2" stroke-width="4.88889" stroke-linecap="round"/>
</svg>
