<svg width="20" height="20" viewBox="0 0 20 20" fill="none" xmlns="http://www.w3.org/2000/svg">
<path d="M9.375 15.8337C9.375 15.6679 9.44085 15.5089 9.55806 15.3917C9.67527 15.2745 9.83424 15.2087 10 15.2087H15C15.0553 15.2087 15.1082 15.1867 15.1473 15.1476C15.1864 15.1086 15.2083 15.0556 15.2083 15.0003V5.00033C15.2083 4.94507 15.1864 4.89208 15.1473 4.85301C15.1082 4.81394 15.0553 4.79199 15 4.79199H10C9.83424 4.79199 9.67527 4.72614 9.55806 4.60893C9.44085 4.49172 9.375 4.33275 9.375 4.16699C9.375 4.00123 9.44085 3.84226 9.55806 3.72505C9.67527 3.60784 9.83424 3.54199 10 3.54199H15C15.805 3.54199 16.4583 4.19533 16.4583 5.00033V15.0003C16.4583 15.3871 16.3047 15.758 16.0312 16.0315C15.7577 16.305 15.3868 16.4587 15 16.4587H10C9.83424 16.4587 9.67527 16.3928 9.55806 16.2756C9.44085 16.1584 9.375 15.9994 9.375 15.8337Z" fill="#6C757D"/>
<path d="M13.0118 10.9289C13.0118 11.1499 12.924 11.3618 12.7677 11.5181C12.6114 11.6744 12.3995 11.7622 12.1785 11.7622H8.13178C8.11262 12.0589 8.08845 12.3539 8.06012 12.6505L8.03512 12.9047C8.02581 13.0005 7.99353 13.0926 7.94102 13.1733C7.88851 13.2539 7.81732 13.3207 7.73348 13.368C7.64965 13.4153 7.55565 13.4416 7.45946 13.4448C7.36328 13.448 7.26774 13.428 7.18095 13.3864C5.6576 12.6563 4.27854 11.6572 3.11012 10.4372L3.08512 10.4114C2.97786 10.2995 2.91797 10.1505 2.91797 9.99552C2.91797 9.84054 2.97786 9.69155 3.08512 9.57969L3.11012 9.55385C4.27853 8.33384 5.65759 7.33476 7.18095 6.60469C7.26774 6.56309 7.36328 6.54303 7.45946 6.54623C7.55565 6.54943 7.64965 6.57578 7.73348 6.62305C7.81732 6.67032 7.88851 6.73712 7.94102 6.81778C7.99353 6.89843 8.02581 6.99056 8.03512 7.08635L8.06012 7.34052C8.08845 7.63635 8.11262 7.93219 8.13178 8.22885H12.1785C12.3995 8.22885 12.6114 8.31665 12.7677 8.47293C12.924 8.62921 13.0118 8.84117 13.0118 9.06219V10.9289Z" fill="#6C757D"/>
</svg>
