<svg width="17" height="17" viewBox="0 0 17 17" fill="none" xmlns="http://www.w3.org/2000/svg">
<path d="M12.4167 0.75H4.08333C2.24238 0.75 0.75 2.24238 0.75 4.08333V12.4167C0.75 14.2576 2.24238 15.75 4.08333 15.75H12.4167C14.2576 15.75 15.75 14.2576 15.75 12.4167V4.08333C15.75 2.24238 14.2576 0.75 12.4167 0.75Z" stroke="#131313" stroke-width="1.5" stroke-linecap="round" stroke-linejoin="round"/>
<path d="M12.4167 0.75H4.08333C2.24238 0.75 0.75 2.24238 0.75 4.08333V12.4167C0.75 14.2576 2.24238 15.75 4.08333 15.75H12.4167C14.2576 15.75 15.75 14.2576 15.75 12.4167V4.08333C15.75 2.24238 14.2576 0.75 12.4167 0.75Z" stroke="black" stroke-opacity="0.2" stroke-width="1.5" stroke-linecap="round" stroke-linejoin="round"/>
<path d="M12.4167 0.75H4.08333C2.24238 0.75 0.75 2.24238 0.75 4.08333V12.4167C0.75 14.2576 2.24238 15.75 4.08333 15.75H12.4167C14.2576 15.75 15.75 14.2576 15.75 12.4167V4.08333C15.75 2.24238 14.2576 0.75 12.4167 0.75Z" stroke="black" stroke-opacity="0.2" stroke-width="1.5" stroke-linecap="round" stroke-linejoin="round"/>
<path d="M12.4167 0.75H4.08333C2.24238 0.75 0.75 2.24238 0.75 4.08333V12.4167C0.75 14.2576 2.24238 15.75 4.08333 15.75H12.4167C14.2576 15.75 15.75 14.2576 15.75 12.4167V4.08333C15.75 2.24238 14.2576 0.75 12.4167 0.75Z" stroke="black" stroke-opacity="0.2" stroke-width="1.5" stroke-linecap="round" stroke-linejoin="round"/>
<path d="M5.75 8.24967L7.625 9.91634L10.75 6.58301" stroke="#131313" stroke-width="1.5" stroke-linecap="round" stroke-linejoin="round"/>
<path d="M5.75 8.24967L7.625 9.91634L10.75 6.58301" stroke="black" stroke-opacity="0.2" stroke-width="1.5" stroke-linecap="round" stroke-linejoin="round"/>
<path d="M5.75 8.24967L7.625 9.91634L10.75 6.58301" stroke="black" stroke-opacity="0.2" stroke-width="1.5" stroke-linecap="round" stroke-linejoin="round"/>
<path d="M5.75 8.24967L7.625 9.91634L10.75 6.58301" stroke="black" stroke-opacity="0.2" stroke-width="1.5" stroke-linecap="round" stroke-linejoin="round"/>
</svg>
