<svg width="18" height="18" viewBox="0 0 18 18" fill="none" xmlns="http://www.w3.org/2000/svg">
<path d="M12.75 2.75H15.75C16.0152 2.75 16.2696 2.85536 16.4571 3.04289C16.6446 3.23043 16.75 3.48478 16.75 3.75V14.75C16.75 15.2804 16.5393 15.7891 16.1642 16.1642C15.7891 16.5393 15.2804 16.75 14.75 16.75M14.75 16.75C14.2196 16.75 13.7109 16.5393 13.3358 16.1642C12.9607 15.7891 12.75 15.2804 12.75 14.75V1.75C12.75 1.48478 12.6446 1.23043 12.4571 1.04289C12.2696 0.855357 12.0152 0.75 11.75 0.75H1.75C1.48478 0.75 1.23043 0.855357 1.04289 1.04289C0.855357 1.23043 0.75 1.48478 0.75 1.75V13.75C0.75 14.5456 1.06607 15.3087 1.62868 15.8713C2.19129 16.4339 2.95435 16.75 3.75 16.75H14.75ZM4.75 4.75H8.75M4.75 8.75H8.75M4.75 12.75H8.75" stroke="#6C757D" stroke-width="1.5" stroke-linecap="round" stroke-linejoin="round"/>
</svg>
