<svg width="92" height="92" viewBox="0 0 92 92" fill="none" xmlns="http://www.w3.org/2000/svg">
<rect width="92" height="92" fill="#FAFAFA"/>
<path d="M19.672 55H16.96V38.2H19.312V48.256L22.024 38.2H25.336V55H22.96V42.832L19.672 55ZM31.1371 38.2C32.4651 38.2 33.4491 38.552 34.0891 39.256C34.7451 39.96 35.0731 40.992 35.0731 42.352V44.536C35.0731 45.896 34.7451 46.928 34.0891 47.632C33.4491 48.336 32.4651 48.688 31.1371 48.688H29.8891V55H27.2491V38.2H31.1371ZM29.8891 40.6V46.288H31.1371C31.5531 46.288 31.8731 46.176 32.0971 45.952C32.3211 45.728 32.4331 45.312 32.4331 44.704V42.184C32.4331 41.576 32.3211 41.16 32.0971 40.936C31.8731 40.712 31.5531 40.6 31.1371 40.6H29.8891ZM38.6725 51.136C38.6725 51.744 38.7925 52.176 39.0325 52.432C39.2885 52.672 39.6245 52.792 40.0405 52.792C40.4565 52.792 40.7845 52.672 41.0245 52.432C41.2805 52.176 41.4085 51.744 41.4085 51.136V42.064C41.4085 41.456 41.2805 41.032 41.0245 40.792C40.7845 40.536 40.4565 40.408 40.0405 40.408C39.6245 40.408 39.2885 40.536 39.0325 40.792C38.7925 41.032 38.6725 41.456 38.6725 42.064V51.136ZM36.0325 42.232C36.0325 40.872 36.3765 39.832 37.0645 39.112C37.7525 38.376 38.7445 38.008 40.0405 38.008C41.3365 38.008 42.3285 38.376 43.0165 39.112C43.7045 39.832 44.0485 40.872 44.0485 42.232V50.968C44.0485 52.328 43.7045 53.376 43.0165 54.112C42.3285 54.832 41.3365 55.192 40.0405 55.192C38.7445 55.192 37.7525 54.832 37.0645 54.112C36.3765 53.376 36.0325 52.328 36.0325 50.968V42.232ZM48.3578 55H45.7178V38.2H48.3578V45.4H51.3578V38.2H54.0458V55H51.3578V47.8H48.3578V55ZM64.48 55H61.816L61.36 51.952H58.12L57.664 55H55.24L57.928 38.2H61.792L64.48 55ZM58.456 49.672H61L59.728 41.176L58.456 49.672ZM66.4066 52.6C66.5506 52.616 66.7026 52.624 66.8626 52.624C67.0226 52.624 67.1746 52.624 67.3186 52.624C67.5266 52.624 67.7186 52.6 67.8946 52.552C68.0866 52.504 68.2466 52.416 68.3746 52.288C68.5186 52.16 68.6226 51.976 68.6866 51.736C68.7666 51.496 68.8066 51.192 68.8066 50.824L64.9666 38.2H67.6066L70.5106 48.04L72.9106 38.2H75.5506L72.0946 50.584C71.7906 51.736 71.4786 52.624 71.1586 53.248C70.8546 53.856 70.5266 54.296 70.1746 54.568C69.8226 54.824 69.4386 54.968 69.0226 55C68.6226 55.032 68.1746 55.048 67.6786 55.048C67.4386 55.048 67.2226 55.048 67.0306 55.048C66.8386 55.048 66.6306 55.032 66.4066 55V52.6Z" fill="#6C757D" fill-opacity="0.2"/>
</svg>
