<svg width="20" height="20" viewBox="0 0 20 20" fill="none" xmlns="http://www.w3.org/2000/svg">
<g clip-path="url(#clip0_6358_31430)">
<path d="M12.3169 10.7526C12.3169 11.367 12.0728 11.9563 11.6384 12.3907C11.2039 12.8252 10.6147 13.0693 10.0003 13.0693C9.38584 13.0693 8.79659 12.8252 8.36213 12.3907C7.92767 11.9563 7.68359 11.367 7.68359 10.7526V9.24677C7.68359 8.63235 7.92767 8.0431 8.36213 7.60864C8.79659 7.17418 9.38584 6.9301 10.0003 6.9301C10.6147 6.9301 11.2039 7.17418 11.6384 7.60864C12.0728 8.0431 12.3169 8.63235 12.3169 9.24677M12.3173 13.0697V6.92969" stroke="#131313" stroke-width="1.5" stroke-linecap="round" stroke-linejoin="round"/>
<path d="M12.3169 10.7526C12.3169 11.367 12.0728 11.9563 11.6384 12.3907C11.2039 12.8252 10.6147 13.0693 10.0003 13.0693C9.38584 13.0693 8.79659 12.8252 8.36213 12.3907C7.92767 11.9563 7.68359 11.367 7.68359 10.7526V9.24677C7.68359 8.63235 7.92767 8.0431 8.36213 7.60864C8.79659 7.17418 9.38584 6.9301 10.0003 6.9301C10.6147 6.9301 11.2039 7.17418 11.6384 7.60864C12.0728 8.0431 12.3169 8.63235 12.3169 9.24677M12.3173 13.0697V6.92969" stroke="black" stroke-opacity="0.2" stroke-width="1.5" stroke-linecap="round" stroke-linejoin="round"/>
<path d="M12.3169 10.7526C12.3169 11.367 12.0728 11.9563 11.6384 12.3907C11.2039 12.8252 10.6147 13.0693 10.0003 13.0693C9.38584 13.0693 8.79659 12.8252 8.36213 12.3907C7.92767 11.9563 7.68359 11.367 7.68359 10.7526V9.24677C7.68359 8.63235 7.92767 8.0431 8.36213 7.60864C8.79659 7.17418 9.38584 6.9301 10.0003 6.9301C10.6147 6.9301 11.2039 7.17418 11.6384 7.60864C12.0728 8.0431 12.3169 8.63235 12.3169 9.24677M12.3173 13.0697V6.92969" stroke="black" stroke-opacity="0.2" stroke-width="1.5" stroke-linecap="round" stroke-linejoin="round"/>
<path d="M12.3169 10.7526C12.3169 11.367 12.0728 11.9563 11.6384 12.3907C11.2039 12.8252 10.6147 13.0693 10.0003 13.0693C9.38584 13.0693 8.79659 12.8252 8.36213 12.3907C7.92767 11.9563 7.68359 11.367 7.68359 10.7526V9.24677C7.68359 8.63235 7.92767 8.0431 8.36213 7.60864C8.79659 7.17418 9.38584 6.9301 10.0003 6.9301C10.6147 6.9301 11.2039 7.17418 11.6384 7.60864C12.0728 8.0431 12.3169 8.63235 12.3169 9.24677M12.3173 13.0697V6.92969" stroke="black" stroke-opacity="0.2" stroke-width="1.5" stroke-linecap="round" stroke-linejoin="round"/>
<path d="M10.0013 18.9587C14.9489 18.9587 18.9596 14.9479 18.9596 10.0003C18.9596 5.05277 14.9489 1.04199 10.0013 1.04199C5.05375 1.04199 1.04297 5.05277 1.04297 10.0003C1.04297 14.9479 5.05375 18.9587 10.0013 18.9587Z" stroke="#131313" stroke-width="1.5" stroke-linecap="round" stroke-linejoin="round"/>
<path d="M10.0013 18.9587C14.9489 18.9587 18.9596 14.9479 18.9596 10.0003C18.9596 5.05277 14.9489 1.04199 10.0013 1.04199C5.05375 1.04199 1.04297 5.05277 1.04297 10.0003C1.04297 14.9479 5.05375 18.9587 10.0013 18.9587Z" stroke="black" stroke-opacity="0.2" stroke-width="1.5" stroke-linecap="round" stroke-linejoin="round"/>
<path d="M10.0013 18.9587C14.9489 18.9587 18.9596 14.9479 18.9596 10.0003C18.9596 5.05277 14.9489 1.04199 10.0013 1.04199C5.05375 1.04199 1.04297 5.05277 1.04297 10.0003C1.04297 14.9479 5.05375 18.9587 10.0013 18.9587Z" stroke="black" stroke-opacity="0.2" stroke-width="1.5" stroke-linecap="round" stroke-linejoin="round"/>
<path d="M10.0013 18.9587C14.9489 18.9587 18.9596 14.9479 18.9596 10.0003C18.9596 5.05277 14.9489 1.04199 10.0013 1.04199C5.05375 1.04199 1.04297 5.05277 1.04297 10.0003C1.04297 14.9479 5.05375 18.9587 10.0013 18.9587Z" stroke="black" stroke-opacity="0.2" stroke-width="1.5" stroke-linecap="round" stroke-linejoin="round"/>
</g>
<defs>
<clipPath id="clip0_6358_31430">
<rect width="20" height="20" fill="white"/>
</clipPath>
</defs>
</svg>
