<svg width="18" height="18" viewBox="0 0 18 18" fill="none" xmlns="http://www.w3.org/2000/svg">
<path d="M17.317 2.05799L15.442 0.182991C15.3248 0.0658221 15.1658 0 15.0001 0C14.8344 0 14.6754 0.0658221 14.5582 0.182991L10.9914 3.74987H9.43448C8.00927 3.75089 6.61953 4.19433 5.45712 5.01898C4.29472 5.84362 3.41698 7.00879 2.94511 8.35362L0.0351057 16.6686C-0.00378756 16.7797 -0.010519 16.8995 0.0156864 17.0143C0.0418918 17.129 0.0999687 17.2341 0.183232 17.3172C0.266495 17.4004 0.371559 17.4584 0.486331 17.4846C0.601103 17.5107 0.720917 17.5038 0.831981 17.4649L9.14636 14.5549C10.4912 14.083 11.6564 13.2053 12.481 12.0429C13.3056 10.8804 13.7491 9.4907 13.7501 8.06549V6.50924L17.317 2.94174C17.4342 2.82454 17.5 2.66559 17.5 2.49987C17.5 2.33414 17.4342 2.1752 17.317 2.05799ZM12.6832 5.80799C12.566 5.92517 12.5001 6.08412 12.5001 6.24987V8.06549C12.4992 9.23157 12.1364 10.3686 11.4616 11.3197C10.7869 12.2707 9.83355 12.9888 8.73323 13.3749L3.00323 15.3805L8.75011 9.63362L7.86636 8.74987L2.11886 14.4967L4.12511 8.76674C4.51117 7.66643 5.22929 6.71309 6.18032 6.03835C7.13136 5.36362 8.2684 5.00076 9.43448 4.99987H11.2501C11.4159 4.99983 11.5748 4.93396 11.692 4.81674L15.0001 1.50862L15.9914 2.49987L12.6832 5.80799Z" fill="#6C757D"/>
</svg>
