<svg width="20" height="20" viewBox="0 0 20 20" fill="none" xmlns="http://www.w3.org/2000/svg">
<g clip-path="url(#clip0_7165_42520)">
<path d="M1.22668 11.1306C1.61461 12.0434 2.17853 12.8708 2.88624 13.5657C3.59395 14.2605 4.43159 14.8092 5.35135 15.1803C6.2711 15.5515 7.25494 15.7378 8.24671 15.7287C9.23848 15.7197 10.2187 15.5153 11.1315 15.1274C12.0443 14.7395 12.8718 14.1755 13.5667 13.4678C14.2615 12.7601 14.8102 11.9225 15.1813 11.0027C15.5524 10.083 15.7388 9.09911 15.7297 8.10734C15.7206 7.11558 15.5163 6.13531 15.1283 5.22251C14.7404 4.30971 14.1765 3.48226 13.4688 2.7874C12.7611 2.09254 11.9234 1.54388 11.0037 1.17274C10.0839 0.801599 9.10007 0.615253 8.1083 0.62434C7.11653 0.633428 6.13627 0.837769 5.22347 1.2257C4.31067 1.61363 3.48322 2.17755 2.78836 2.88526C2.0935 3.59297 1.54484 4.43062 1.17371 5.35037C0.80257 6.27013 0.616227 7.25397 0.625317 8.24574C0.634407 9.23751 0.838752 10.2178 1.22668 11.1306Z" stroke="#FAFAFA" stroke-width="1.5" stroke-linecap="round" stroke-linejoin="round"/>
<path d="M13.5156 13.5166L19.3731 19.3749" stroke="#FAFAFA" stroke-width="1.5" stroke-linecap="round" stroke-linejoin="round"/>
</g>
<defs>
<clipPath id="clip0_7165_42520">
<rect width="20" height="20" fill="white"/>
</clipPath>
</defs>
</svg>
