<svg width="21" height="21" viewBox="0 0 21 21" fill="none" xmlns="http://www.w3.org/2000/svg">
<path d="M1.35168 11.2566C1.73961 12.1693 2.30353 12.9968 3.01124 13.6917C3.71895 14.3865 4.55659 14.9352 5.47635 15.3063C6.3961 15.6775 7.37994 15.8638 8.37171 15.8547C9.36348 15.8456 10.3437 15.6413 11.2565 15.2534C12.1693 14.8654 12.9968 14.3015 13.6917 13.5938C14.3865 12.8861 14.9352 12.0484 15.3063 11.1287C15.6774 10.2089 15.8638 9.22509 15.8547 8.23332C15.8456 7.24155 15.6413 6.26129 15.2533 5.34849C14.8654 4.43569 14.3015 3.60824 13.5938 2.91338C12.8861 2.21852 12.0484 1.66985 11.1287 1.29871C10.2089 0.927575 9.22507 0.74123 8.2333 0.750317C7.24153 0.759404 6.26127 0.963746 5.34847 1.35168C4.43567 1.7396 3.60822 2.30352 2.91336 3.01124C2.2185 3.71895 1.66984 4.5566 1.29871 5.47635C0.92757 6.3961 0.741227 7.37995 0.750317 8.37172C0.759407 9.36349 0.963752 10.3438 1.35168 11.2566Z" stroke="#131313" stroke-width="1.5" stroke-linecap="round" stroke-linejoin="round"/>
<path d="M1.35168 11.2566C1.73961 12.1693 2.30353 12.9968 3.01124 13.6917C3.71895 14.3865 4.55659 14.9352 5.47635 15.3063C6.3961 15.6775 7.37994 15.8638 8.37171 15.8547C9.36348 15.8456 10.3437 15.6413 11.2565 15.2534C12.1693 14.8654 12.9968 14.3015 13.6917 13.5938C14.3865 12.8861 14.9352 12.0484 15.3063 11.1287C15.6774 10.2089 15.8638 9.22509 15.8547 8.23332C15.8456 7.24155 15.6413 6.26129 15.2533 5.34849C14.8654 4.43569 14.3015 3.60824 13.5938 2.91338C12.8861 2.21852 12.0484 1.66985 11.1287 1.29871C10.2089 0.927575 9.22507 0.74123 8.2333 0.750317C7.24153 0.759404 6.26127 0.963746 5.34847 1.35168C4.43567 1.7396 3.60822 2.30352 2.91336 3.01124C2.2185 3.71895 1.66984 4.5566 1.29871 5.47635C0.92757 6.3961 0.741227 7.37995 0.750317 8.37172C0.759407 9.36349 0.963752 10.3438 1.35168 11.2566Z" stroke="black" stroke-opacity="0.2" stroke-width="1.5" stroke-linecap="round" stroke-linejoin="round"/>
<path d="M1.35168 11.2566C1.73961 12.1693 2.30353 12.9968 3.01124 13.6917C3.71895 14.3865 4.55659 14.9352 5.47635 15.3063C6.3961 15.6775 7.37994 15.8638 8.37171 15.8547C9.36348 15.8456 10.3437 15.6413 11.2565 15.2534C12.1693 14.8654 12.9968 14.3015 13.6917 13.5938C14.3865 12.8861 14.9352 12.0484 15.3063 11.1287C15.6774 10.2089 15.8638 9.22509 15.8547 8.23332C15.8456 7.24155 15.6413 6.26129 15.2533 5.34849C14.8654 4.43569 14.3015 3.60824 13.5938 2.91338C12.8861 2.21852 12.0484 1.66985 11.1287 1.29871C10.2089 0.927575 9.22507 0.74123 8.2333 0.750317C7.24153 0.759404 6.26127 0.963746 5.34847 1.35168C4.43567 1.7396 3.60822 2.30352 2.91336 3.01124C2.2185 3.71895 1.66984 4.5566 1.29871 5.47635C0.92757 6.3961 0.741227 7.37995 0.750317 8.37172C0.759407 9.36349 0.963752 10.3438 1.35168 11.2566Z" stroke="black" stroke-opacity="0.2" stroke-width="1.5" stroke-linecap="round" stroke-linejoin="round"/>
<path d="M1.35168 11.2566C1.73961 12.1693 2.30353 12.9968 3.01124 13.6917C3.71895 14.3865 4.55659 14.9352 5.47635 15.3063C6.3961 15.6775 7.37994 15.8638 8.37171 15.8547C9.36348 15.8456 10.3437 15.6413 11.2565 15.2534C12.1693 14.8654 12.9968 14.3015 13.6917 13.5938C14.3865 12.8861 14.9352 12.0484 15.3063 11.1287C15.6774 10.2089 15.8638 9.22509 15.8547 8.23332C15.8456 7.24155 15.6413 6.26129 15.2533 5.34849C14.8654 4.43569 14.3015 3.60824 13.5938 2.91338C12.8861 2.21852 12.0484 1.66985 11.1287 1.29871C10.2089 0.927575 9.22507 0.74123 8.2333 0.750317C7.24153 0.759404 6.26127 0.963746 5.34847 1.35168C4.43567 1.7396 3.60822 2.30352 2.91336 3.01124C2.2185 3.71895 1.66984 4.5566 1.29871 5.47635C0.92757 6.3961 0.741227 7.37995 0.750317 8.37172C0.759407 9.36349 0.963752 10.3438 1.35168 11.2566Z" stroke="black" stroke-opacity="0.2" stroke-width="1.5" stroke-linecap="round" stroke-linejoin="round"/>
<path d="M13.6406 13.6426L19.4981 19.5009" stroke="#131313" stroke-width="1.5" stroke-linecap="round" stroke-linejoin="round"/>
<path d="M13.6406 13.6426L19.4981 19.5009" stroke="black" stroke-opacity="0.2" stroke-width="1.5" stroke-linecap="round" stroke-linejoin="round"/>
<path d="M13.6406 13.6426L19.4981 19.5009" stroke="black" stroke-opacity="0.2" stroke-width="1.5" stroke-linecap="round" stroke-linejoin="round"/>
<path d="M13.6406 13.6426L19.4981 19.5009" stroke="black" stroke-opacity="0.2" stroke-width="1.5" stroke-linecap="round" stroke-linejoin="round"/>
</svg>
