<svg width="18" height="15" viewBox="0 0 18 15" fill="none" xmlns="http://www.w3.org/2000/svg">
<path d="M5.73125 1.25L7.86875 3.38125L8.23125 3.75H16.25V13.75H1.25V1.25H5.73125ZM5.73125 3.92458e-07H1.25C0.918479 3.92458e-07 0.600537 0.131696 0.366116 0.366117C0.131696 0.600537 0 0.91848 0 1.25V13.75C0 14.0815 0.131696 14.3995 0.366116 14.6339C0.600537 14.8683 0.918479 15 1.25 15H16.25C16.5815 15 16.8995 14.8683 17.1339 14.6339C17.3683 14.3995 17.5 14.0815 17.5 13.75V3.75C17.5 3.41848 17.3683 3.10054 17.1339 2.86612C16.8995 2.6317 16.5815 2.5 16.25 2.5H8.75L6.61875 0.368751C6.50246 0.25177 6.36418 0.158961 6.21185 0.0956733C6.05953 0.0323853 5.89619 -0.000130307 5.73125 3.92458e-07Z" fill="#6C757D"/>
</svg>
