<svg width="20" height="20" viewBox="0 0 20 20" fill="none" xmlns="http://www.w3.org/2000/svg">
<path d="M10 1C8.21997 1 6.47991 1.52784 4.99987 2.51677C3.51983 3.50571 2.36628 4.91131 1.68509 6.55585C1.0039 8.20038 0.82567 10.01 1.17294 11.7558C1.5202 13.5016 2.37737 15.1053 3.63604 16.364C4.89472 17.6226 6.49836 18.4798 8.24419 18.8271C9.99002 19.1743 11.7996 18.9961 13.4442 18.3149C15.0887 17.6337 16.4943 16.4802 17.4832 15.0001C18.4722 13.5201 19 11.78 19 10C19 7.61305 18.0518 5.32387 16.364 3.63604C14.6761 1.94821 12.3869 1 10 1ZM10 17.3636C8.54361 17.3636 7.11993 16.9318 5.90899 16.1226C4.69804 15.3135 3.75423 14.1635 3.19689 12.8179C2.63955 11.4724 2.49373 9.99183 2.77786 8.56343C3.06199 7.13502 3.7633 5.82295 4.79313 4.79312C5.82295 3.7633 7.13502 3.06198 8.56343 2.77785C9.99183 2.49373 11.4724 2.63955 12.8179 3.19689C14.1635 3.75422 15.3135 4.69804 16.1226 5.90898C16.9318 7.11993 17.3636 8.54361 17.3636 10C17.3636 11.953 16.5878 13.8259 15.2069 15.2069C13.8259 16.5878 11.953 17.3636 10 17.3636Z" fill="#6C757D"/>
<path d="M13.5 6.5L9.5 9.5V15.5" stroke="#6C757D" stroke-width="1.5"/>
</svg>
