<svg width="20" height="20" viewBox="0 0 20 20" fill="none" xmlns="http://www.w3.org/2000/svg">
<g clip-path="url(#clip0_6249_15799)">
<path d="M1.46094 5.3063L18.5784 1.66797" stroke="#131313" stroke-width="1.5" stroke-linecap="round" stroke-linejoin="round"/>
<path d="M1.46094 5.3063L18.5784 1.66797" stroke="black" stroke-opacity="0.2" stroke-width="1.5" stroke-linecap="round" stroke-linejoin="round"/>
<path d="M1.46094 5.3063L18.5784 1.66797" stroke="black" stroke-opacity="0.2" stroke-width="1.5" stroke-linecap="round" stroke-linejoin="round"/>
<path d="M1.46094 5.3063L18.5784 1.66797" stroke="black" stroke-opacity="0.2" stroke-width="1.5" stroke-linecap="round" stroke-linejoin="round"/>
<path d="M11.3313 0.652037L7.66459 1.4312C7.50358 1.46507 7.35083 1.53039 7.21512 1.62342C7.07941 1.71645 6.96339 1.83536 6.87374 1.97333C6.78409 2.11129 6.72255 2.2656 6.69267 2.4274C6.66278 2.5892 6.66513 2.75531 6.69959 2.9162L6.95959 4.13954L13.0729 2.83954L12.8129 1.61704C12.779 1.45637 12.7138 1.30395 12.621 1.16849C12.5282 1.03303 12.4096 0.91718 12.272 0.827565C12.1344 0.73795 11.9805 0.676324 11.8191 0.646206C11.6577 0.616088 11.4919 0.618069 11.3313 0.652037Z" stroke="#131313" stroke-width="1.5" stroke-linecap="round" stroke-linejoin="round"/>
<path d="M11.3313 0.652037L7.66459 1.4312C7.50358 1.46507 7.35083 1.53039 7.21512 1.62342C7.07941 1.71645 6.96339 1.83536 6.87374 1.97333C6.78409 2.11129 6.72255 2.2656 6.69267 2.4274C6.66278 2.5892 6.66513 2.75531 6.69959 2.9162L6.95959 4.13954L13.0729 2.83954L12.8129 1.61704C12.779 1.45637 12.7138 1.30395 12.621 1.16849C12.5282 1.03303 12.4096 0.91718 12.272 0.827565C12.1344 0.73795 11.9805 0.676324 11.8191 0.646206C11.6577 0.616088 11.4919 0.618069 11.3313 0.652037Z" stroke="black" stroke-opacity="0.2" stroke-width="1.5" stroke-linecap="round" stroke-linejoin="round"/>
<path d="M11.3313 0.652037L7.66459 1.4312C7.50358 1.46507 7.35083 1.53039 7.21512 1.62342C7.07941 1.71645 6.96339 1.83536 6.87374 1.97333C6.78409 2.11129 6.72255 2.2656 6.69267 2.4274C6.66278 2.5892 6.66513 2.75531 6.69959 2.9162L6.95959 4.13954L13.0729 2.83954L12.8129 1.61704C12.779 1.45637 12.7138 1.30395 12.621 1.16849C12.5282 1.03303 12.4096 0.91718 12.272 0.827565C12.1344 0.73795 11.9805 0.676324 11.8191 0.646206C11.6577 0.616088 11.4919 0.618069 11.3313 0.652037Z" stroke="black" stroke-opacity="0.2" stroke-width="1.5" stroke-linecap="round" stroke-linejoin="round"/>
<path d="M11.3313 0.652037L7.66459 1.4312C7.50358 1.46507 7.35083 1.53039 7.21512 1.62342C7.07941 1.71645 6.96339 1.83536 6.87374 1.97333C6.78409 2.11129 6.72255 2.2656 6.69267 2.4274C6.66278 2.5892 6.66513 2.75531 6.69959 2.9162L6.95959 4.13954L13.0729 2.83954L12.8129 1.61704C12.779 1.45637 12.7138 1.30395 12.621 1.16849C12.5282 1.03303 12.4096 0.91718 12.272 0.827565C12.1344 0.73795 11.9805 0.676324 11.8191 0.646206C11.6577 0.616088 11.4919 0.618069 11.3313 0.652037Z" stroke="black" stroke-opacity="0.2" stroke-width="1.5" stroke-linecap="round" stroke-linejoin="round"/>
<path d="M8.96094 15V8.75" stroke="#131313" stroke-width="1.5" stroke-linecap="round" stroke-linejoin="round"/>
<path d="M8.96094 15V8.75" stroke="black" stroke-opacity="0.2" stroke-width="1.5" stroke-linecap="round" stroke-linejoin="round"/>
<path d="M8.96094 15V8.75" stroke="black" stroke-opacity="0.2" stroke-width="1.5" stroke-linecap="round" stroke-linejoin="round"/>
<path d="M8.96094 15V8.75" stroke="black" stroke-opacity="0.2" stroke-width="1.5" stroke-linecap="round" stroke-linejoin="round"/>
<path d="M12.7109 15V8.75" stroke="#131313" stroke-width="1.5" stroke-linecap="round" stroke-linejoin="round"/>
<path d="M12.7109 15V8.75" stroke="black" stroke-opacity="0.2" stroke-width="1.5" stroke-linecap="round" stroke-linejoin="round"/>
<path d="M12.7109 15V8.75" stroke="black" stroke-opacity="0.2" stroke-width="1.5" stroke-linecap="round" stroke-linejoin="round"/>
<path d="M12.7109 15V8.75" stroke="black" stroke-opacity="0.2" stroke-width="1.5" stroke-linecap="round" stroke-linejoin="round"/>
<path d="M15.5217 5H17.7092L16.555 18.2283C16.529 18.5416 16.3859 18.8336 16.1543 19.0461C15.9226 19.2587 15.6194 19.3761 15.305 19.375H6.35917C6.04566 19.3748 5.74366 19.2568 5.51306 19.0444C5.28246 18.8321 5.14008 18.5408 5.11417 18.2283L4.25 7.81417" stroke="#131313" stroke-width="1.5" stroke-linecap="round" stroke-linejoin="round"/>
<path d="M15.5217 5H17.7092L16.555 18.2283C16.529 18.5416 16.3859 18.8336 16.1543 19.0461C15.9226 19.2587 15.6194 19.3761 15.305 19.375H6.35917C6.04566 19.3748 5.74366 19.2568 5.51306 19.0444C5.28246 18.8321 5.14008 18.5408 5.11417 18.2283L4.25 7.81417" stroke="black" stroke-opacity="0.2" stroke-width="1.5" stroke-linecap="round" stroke-linejoin="round"/>
<path d="M15.5217 5H17.7092L16.555 18.2283C16.529 18.5416 16.3859 18.8336 16.1543 19.0461C15.9226 19.2587 15.6194 19.3761 15.305 19.375H6.35917C6.04566 19.3748 5.74366 19.2568 5.51306 19.0444C5.28246 18.8321 5.14008 18.5408 5.11417 18.2283L4.25 7.81417" stroke="black" stroke-opacity="0.2" stroke-width="1.5" stroke-linecap="round" stroke-linejoin="round"/>
<path d="M15.5217 5H17.7092L16.555 18.2283C16.529 18.5416 16.3859 18.8336 16.1543 19.0461C15.9226 19.2587 15.6194 19.3761 15.305 19.375H6.35917C6.04566 19.3748 5.74366 19.2568 5.51306 19.0444C5.28246 18.8321 5.14008 18.5408 5.11417 18.2283L4.25 7.81417" stroke="black" stroke-opacity="0.2" stroke-width="1.5" stroke-linecap="round" stroke-linejoin="round"/>
</g>
<defs>
<clipPath id="clip0_6249_15799">
<rect width="20" height="20" fill="white"/>
</clipPath>
</defs>
</svg>
